<?xml version="1.0" encoding="utf-8"?>
<svg xmlns="http://www.w3.org/2000/svg" width="100" height="100" viewBox="0 0 100 100">
	<style>
#inner { clip-path:url(#eyeLidClip); }
#outer { opacity: 0.75; }
#eyesCorner { fill:#68D; }
#whiteEye { fill:url(#whiteEyeGradient); stroke:#d9d9ff; stroke-width:3; stroke-opacity:0.75; }
#blackEye { fill:#447; stroke:#55A; stroke-width:3; stroke-opacity:0.75; }
#pupil { fill:#115; stroke:#223; stroke-width:2; stroke-opacity:0.75; }
#eyeLid, #outEyeLid > * { fill:none; stroke:#117; stroke-width:4; }
.weakLight { fill:#c1caff; fill-opacity:0.25; filter:url(#lightBlurFilter); } 
.strongLight { fill:#c1c3ff; fill-opacity:0.60; filter:url(#lightBlurFilter); }
	</style>
	<defs>
		<clipPath id="eyeLidClip"> <use href="#eyeLid"/> </clipPath>
		<radialGradient id="whiteEyeGradient" cx="0.5" cy="0.5" r="0.5">
			<stop offset="0.00" stop-color="#FFF"/>
			<stop offset="0.60" stop-color="#FFF"/>
			<stop offset="1.00" stop-color="#CCF"/>
		</radialGradient>
		<filter id="lightBlurFilter" x="-0.2" width="1.4" y="-0.3" height="1.6">
			<feGaussianBlur stdDeviation="1.25"/>
		</filter>
	</defs>
	<g transform="translate(50, 50)">
		<!-- 目の内側 -->
		<g id="inner">
			<!-- 目の角 -->
			<circle id="eyesCorner" r="50"/>
			<!-- 白目 -->
			<circle id="whiteEye" r="33"/>
			<!-- 黒目 -->
			<circle id="blackEye" r="20"/>
			<!-- 瞳孔 -->
			<circle id="pupil" r="10"/>
			<!-- 映り込み右上 -->
			<ellipse class="weakLight" cx="14" rx="8" ry="5" transform="rotate(-40)"/>
			<!-- 映り込み左下 -->
			<ellipse class="weakLight" cx="12" rx="8" ry="5" transform="rotate(-204)"/>
			<!-- 映り込み中央 -->
			<ellipse class="strongLight" cx="12" rx="5" ry="4" transform="rotate(-15)"/>
		</g>
		<!-- 目の外側 -->
		<g id="outer">
			<!-- まぶた -->
			<path id="eyeLid" d="M 40,5 C 35,10 20,20 0,20 C -20,20 -35,10 -40,5 C -30,-10 -15,-20 0,-20 C 20,-20 30,-12 40,5 z"/>
			<!-- まぶたの外側 -->
			<g id="outEyeLid">
				<!-- 二重まぶた -->
				<path d="M -40,-8 C -30,-18 -15,-28 0,-28 C 20,-28 30,-18 40,-8"/>
				<!-- まつ毛 -->
				<path d="M 24.923,-12.091 s 10,-4 10,-13"/>
				<path d="M 6.584,-19.801 s 5,-4, 5,-15"/>
				<path d="M -14.917,-16.831 s -4,-4, -5,-14"/>
				<path d="M -30.0978,-6.445 s -8,-4 -10,-12"/>
			</g>
		</g>
	</g>
</svg>
