<?xml version="1.0" encoding="utf-8"?>
<svg xmlns="http://www.w3.org/2000/svg"
	width="100" height="100" viewBox="0 0 320 320">
	<style>
g#target { filter: url(#shadow); }
.plastic { fill: hsl(0, 0%, 25%); }
.border, .valley { fill: none; stroke: hsla(0, 0%, 0%, 0.5); stroke-width: 5; }
.shutter { fill: hsl(0, 0%, 70%); stroke: hsla(0, 0%, 0%, 0.5); stroke-width: 5; }
.label { fill: url(#labelPattern); stroke: hsla(0, 0%, 0%, 0.5); stroke-width: 5; }
.line { stroke: hsla(0, 0%, 0%, 0.1); stroke-width: 10; }
#labelBase { fill: hsl(0, 0%, 95%); }
#labelBottom { fill: hsl(45, 100%, 80%); }
	</style>
	<defs>
		<!-- 本体。-->
		<path id="body"
			d="M-125,-140
			A15,15,0,0,0,-140,-125 V125
			A15,15,0,0,0,-125,140 H125
			A15,15,0,0,0,140,125 V-110 L110,-140 Z"/>
		<!-- ラベルのパターン -->
		<pattern id="labelPattern" width="100%" height="100%">
			<rect id="labelBase" y="0" width="220" height="140"/>
			<rect id="labelBottom" y="120" width="220" height="20"/>
		</pattern>
		<!-- 影の適用。-->
		<filter id="shadow" x="-20%" y="-20%" width="150%" height="150%">
			<feDropShadow dx="5" dy="5" stdDeviation="5" flood-opacity="0.5"/>
		</filter>
	</defs>
	<g id="target" transform="translate(160, 160)">
		<!-- 本体の表面。-->
		<use class="plastic" href="#body"/>
		<!-- 本体の窪み。-->
		<path class="valley"
			d="M-110,-140 v95
			a15,15,0,0,0,15,15 h160
			a15,15,0,0,0,15,-15 v-90"/>
		<!-- シャッター。-->
		<path class="shutter"
			d="M-60,-140 v95
			a15,15,0,0,0,15,15 h110
			a15,15,0,0,0,15,-15 v-95
			M20,-120 h40 v70 h-40 Z"/>
		<!-- ラベル。-->
		<path class="label"
			d="M110,140 v-125
			a15,15,0,0,0,-15,-15 h-190
			a15,15,0,0,0,-15,15 v125"/>
		<!-- ラベルの行。-->
		<g transform="translate(-85, 35)">
			<path class="line" d="M0,0 h170"/>
			<path class="line" d="M0,30 h170"/>
			<path class="line" d="M0,60 h170"/>
		</g>
		<!-- 全体の枠線。-->
		<use class="border" href="#body"/>
	</g>
</svg>
