<?xml version="1.0" encoding="UTF-8"?>
<svg xmlns="http://www.w3.org/2000/svg" width="100" height="100" viewBox="0 0 160 160">
	<style>
#moonRidge { fill:none; stroke:#ffcc50; stroke-width:3; filter:url(#blur); }
#moonPath { fill:url(#glass); stroke:#ffe281; stroke-width:2; }
#moonInside { fill:url(#rgMoonInside); }
#moonOutside { fill:url(#rgMoonOutside); }
#starBody { fill:url(#rgStar); stroke:#ffed50; stroke-width:1; }
#starShade { fill:#ff0000; fill-opacity:0.07; }
	</style>
	<defs>
		<g id="star">
			<g> <path id="starBody" d="M 0,-16 Q -2,-2,-14,0 Q -2,2,0,16 Q 2,2,14,0 Q 2,-2,0,-16 Z"/> </g>
			<g> <path id="starShade" d="M 0,16 Q 2,2,14,0 C 0,0,0,0,0,16 Z"/> </g>
		</g>
		<linearGradient id="moonFace">
			<stop offset="0.00" stop-color="#feff5f"/>
			<stop offset="0.83" stop-color="#feff5f"/>
			<stop offset="1.00" stop-color="#ffe093"/>
		</linearGradient>
		<linearGradient id="glass"
			gradientUnits="userSpaceOnUse"
			x1="0" y1="0" x2="10" y2="160">
			<stop offset="0.00" stop-color="white" stop-opacity="0.8"/>
			<stop offset="0.40" stop-color="white" stop-opacity="0.0"/>
			<stop offset="0.75" stop-color="white" stop-opacity="0.5"/>
			<stop offset="0.85" stop-color="white" stop-opacity="0.0"/>
			<stop offset="0.95" stop-color="white" stop-opacity="0.5"/>
			<stop offset="1.00" stop-color="white" stop-opacity="0.0"/>
		</linearGradient>
		<radialGradient r="1" id="rgStar">
			<stop offset="0" stop-color="#ffffd0" stop-opacity="1"/>
			<stop offset="1" stop-color="#ffff00" stop-opacity="1"/>
		</radialGradient>
		<radialGradient id="rgMoonOutside"
			gradientUnits="userSpaceOnUse"
			cx="80" cy="80" r="70" href="#moonFace"/>
		<radialGradient id="rgMoonInside"
			href="#moonFace"
			gradientUnits="userSpaceOnUse"
			gradientTransform="translate(110,80) scale(55,63.15)"
			spreadMethod="reflect"
			cx="0" cy="0" r="1"/>
		<filter id="blur">
			<feGaussianBlur stdDeviation="1.5" />
		</filter>
	</defs>
	<g transform="rotate(-30,80,80)">
		<path id="moonInside" d="M 110,16.83199 a 70,70,0,1,0,0,126.33602 c 0,0 -55,-3.168 -55,-63.16801 S 110,16.83199 110,16.83199"/>
		<path id="moonOutside" d="M 110,16.83199 a 70,70,0,1,0,0,126.33602 c 0,0 -75,6.832 -75,-63.16801 S 110,16.83199 110,16.83199 Z"/>
		<path id="moonRidge" d="M 110,143.16801 c 0,0 -75,6.832 -75,-63.168 S 110,16.83199 110,16.83199"/>
		<path id="moonPath" d="M 110,16.83199 a 70,70,0,1,0,0,126.33602 c 0,0 -55,-3.168 -55,-63.16801 S 110,16.83199 110,16.83199"/>
	</g>
	<use href="#star" transform="translate(100,25)"/>
	<use href="#star" transform="translate(140,45)"/>
</svg>
