<?xml version="1.0" encoding="UTF-8"?>
<svg xmlns="http://www.w3.org/2000/svg" width="100" height="100" viewBox="0 0 160 160">
	<style>
#pencil { stroke-width:3; }
#wood { fill:url(#lgWood); stroke:black; stroke-opacity:0.25; }
#eraser { fill:#FEE; stroke:#D998; stroke-opacity:1.0; }
#joint { fill:#FE9; stroke:#AA4; stroke-opacity:0.8; }
#jointGroove { stroke:#AA4; stroke-opacity:0.8; }
#line { stroke:#3f3f3f; stroke-width:5; }
#glip * { stroke:black; stroke-opacity:0.25; }
.shade { fill:url(#lgShade); }
	</style>
	<defs>
		<linearGradient gradientUnits="objectBoundingBox" x1="0" y1="0" x2="0" y2="1" id="lgWood">
			<stop offset="0" stop-color="#FEA"/>
			<stop offset="0.75" stop-color="#FEA"/>
			<stop offset="0.75" stop-color="#543"/>
			<stop offset="1" stop-color="#543"/>
		</linearGradient>
		<linearGradient gradientUnits="objectBoundingBox" x1="0" y1="0" x2="1" y2="0" id="lgShade">
			<stop offset="0" stop-color="black" stop-opacity="0"/>
			<stop offset="0.5" stop-color="black" stop-opacity="0"/>
			<stop offset="1" stop-color="black" stop-opacity="0.4"/>
		</linearGradient>
	</defs>
	<g id="pencil" transform="translate(65, 5), rotate(45, 0, 80)">
		<g>
			<path id="woodPath" d="M -22,120 L 0,155 22,120"/>
			<use id="wood" href="#woodPath"/>
			<use class="shade" href="#woodPath"/>
		</g>
		<g id="glip">
			<path fill="#5F5" d="m -22,20 v100 q 06,6 12,0 v -100 z"/>
			<path fill="#0D7" d="m -10,20 v100 q 12,6 20,0 v -100 z"/>
			<path fill="#0B6" d="m  10,20 v100 q 07,6 12,0 v -100 z"/>
		</g>
		<g>
			<rect id="eraserPath" width="44" height="30" x="-22" y="0" rx="5" />
			<use id="eraser" href="#eraserPath"/>
			<use class="shade" href="#eraserPath"/>
		</g>
		<g>
			<rect id="jointPath" width="46" height="24" x="-23" y="20"/>
			<use id="joint" href="#jointPath"/>
			<path id="jointGroove" d="M -14,28 h 28 M -14,36 h 28"/>
			<use class="shade" href="#jointPath"/>
		</g>
	</g>
	<path id="line" d="m 10,150 50,0"/>
</svg>
