<?xml version="1.0" encoding="UTF-8"?>
<svg xmlns="http://www.w3.org/2000/svg" width="100" height="100" viewBox="0 0 320 320">
	<style>
path { fill: hsl(10, 90%, 90%); stroke: hsla(0, 0%, 0%, 0.5); stroke-width: 5; }
#target { filter: url(#shadow); }
	</style>
	<defs>
		<!-- 影の適用。-->
		<filter id="shadow" x="-25%" y="-25%" width="150%" height="150%">
			<feDropShadow dx="5" dy="5" stdDeviation="5" flood-opacity="0.25"/>
		</filter>
	</defs>
	<g id="target" transform="translate(160, 0)">
		<path d="M -115,120 c -40,4 -30,85 10,80 c 60,-15 20,-83 -10,-80 Z"/>
		<path d="M -42,40 c -50,0 -50,85 0,85 c 40,0 40,-85 0,-85 Z"/>
		<path d="M 42,40 c 50,0 50,85 0,85 c -40,0 -40,-80 0,-85 Z"/>
		<path d="M 115,120 c 40,4 30,85 -10,80 c -60,-15 -20,-83 10,-80 Z"/>
		<path d="M 0,153 
			c-30,0 -35,35 -45,45 
			s -35,15 -35,55
			s 60,25 80,25
			s 80,15 80,-25
			s -25,-45 -35,-55
			s -15,-45 -45,-45 Z"/>
	</g>
</svg>
