<?xml version="1.0" encoding="UTF-8" standalone="no"?>
<!-- Created with Inkscape (http://www.inkscape.org/) -->

<svg
   width="744.09448819"
   height="1052.3622047"
   id="svg2131"
   version="1.1"
   xmlns:xlink="http://www.w3.org/1999/xlink"
   xmlns="http://www.w3.org/2000/svg"
   xmlns:svg="http://www.w3.org/2000/svg"
   xmlns:rdf="http://www.w3.org/1999/02/22-rdf-syntax-ns#"
   xmlns:cc="http://creativecommons.org/ns#"
   xmlns:dc="http://purl.org/dc/elements/1.1/">
  <defs
     id="defs2133">
    <linearGradient
       id="linearGradient6755">
      <stop
         id="stop6757"
         offset="0"
         style="stop-color:black;stop-opacity:0.75294119;" />
      <stop
         style="stop-color:black;stop-opacity:0.50196081;"
         offset="0.60000002"
         id="stop6761" />
      <stop
         id="stop6759"
         offset="1"
         style="stop-color:black;stop-opacity:0;" />
    </linearGradient>
    <linearGradient
       id="linearGradient12850">
      <stop
         style="stop-color:black;stop-opacity:1;"
         offset="0"
         id="stop12852" />
      <stop
         style="stop-color:black;stop-opacity:0;"
         offset="1"
         id="stop12854" />
    </linearGradient>
    <radialGradient
       xlink:href="#linearGradient12850"
       id="radialGradient12856"
       cx="38.259529"
       cy="64.117317"
       fx="38.259529"
       fy="64.117317"
       r="25.380083"
       gradientTransform="matrix(1,0,0,0.276119,-2.3289327,366.20984)"
       gradientUnits="userSpaceOnUse" />
    <radialGradient
       xlink:href="#linearGradient12850"
       id="radialGradient19142"
       gradientUnits="userSpaceOnUse"
       gradientTransform="matrix(1,0,0,0.276119,-2.4552388,301.84114)"
       cx="38.259529"
       cy="64.117317"
       fx="38.259529"
       fy="64.117317"
       r="25.380083" />
    <radialGradient
       xlink:href="#linearGradient12850"
       id="radialGradient1912"
       gradientUnits="userSpaceOnUse"
       gradientTransform="matrix(1,0,0,0.276119,-2.4552388,236.84114)"
       cx="38.259529"
       cy="64.117317"
       fx="38.259529"
       fy="64.117317"
       r="25.380083" />
    <radialGradient
       xlink:href="#linearGradient12850"
       id="radialGradient3740"
       gradientUnits="userSpaceOnUse"
       gradientTransform="matrix(1,0,0,0.276119,-2.4552388,171.84114)"
       cx="38.259529"
       cy="64.117317"
       fx="38.259529"
       fy="64.117317"
       r="25.380083" />
    <radialGradient
       xlink:href="#linearGradient12850"
       id="radialGradient5558"
       gradientUnits="userSpaceOnUse"
       gradientTransform="matrix(1,0,0,0.276119,-2.4552393,106.84114)"
       cx="38.259529"
       cy="64.117317"
       fx="38.259529"
       fy="64.117317"
       r="25.380083" />
    <radialGradient
       xlink:href="#linearGradient12850"
       id="radialGradient6530"
       gradientUnits="userSpaceOnUse"
       gradientTransform="matrix(1,0,0,0.276119,-2.455239,41.84114)"
       cx="38.259529"
       cy="64.117317"
       fx="38.259529"
       fy="64.117317"
       r="25.380083" />
    <radialGradient
       xlink:href="#linearGradient12850"
       id="radialGradient8371"
       gradientUnits="userSpaceOnUse"
       gradientTransform="matrix(1,0,0,0.276119,-2.3289327,431.20984)"
       cx="38.259529"
       cy="64.117317"
       fx="38.259529"
       fy="64.117317"
       r="25.380083" />
    <radialGradient
       xlink:href="#linearGradient12850"
       id="radialGradient9296"
       gradientUnits="userSpaceOnUse"
       gradientTransform="matrix(1,0,0,0.276119,-2.3289327,496.20984)"
       cx="38.259529"
       cy="64.117317"
       fx="38.259529"
       fy="64.117317"
       r="25.380083" />
    <radialGradient
       xlink:href="#linearGradient12850"
       id="radialGradient10220"
       gradientUnits="userSpaceOnUse"
       gradientTransform="matrix(1,0,0,0.276119,-2.3289327,561.20984)"
       cx="38.259529"
       cy="64.117317"
       fx="38.259529"
       fy="64.117317"
       r="25.380083" />
    <radialGradient
       xlink:href="#linearGradient12850"
       id="radialGradient10245"
       gradientUnits="userSpaceOnUse"
       gradientTransform="matrix(1,0,0,0.276119,-2.3289327,626.20984)"
       cx="38.259529"
       cy="64.117317"
       fx="38.259529"
       fy="64.117317"
       r="25.380083" />
    <radialGradient
       xlink:href="#linearGradient12850"
       id="radialGradient12117"
       gradientUnits="userSpaceOnUse"
       gradientTransform="matrix(1,0,0,0.276119,-2.3289327,691.20984)"
       cx="38.259529"
       cy="64.117317"
       fx="38.259529"
       fy="64.117317"
       r="25.380083" />
    <radialGradient
       xlink:href="#linearGradient6755"
       id="radialGradient2214"
       gradientUnits="userSpaceOnUse"
       gradientTransform="matrix(1.0601674,0,0,0.27601355,68.035262,165.48272)"
       cx="38.259529"
       cy="64.117317"
       fx="38.259529"
       fy="64.117317"
       r="25.380083" />
    <radialGradient
       xlink:href="#linearGradient6755"
       id="radialGradient20105"
       gradientUnits="userSpaceOnUse"
       gradientTransform="matrix(1.060167,0,0,0.27601352,58.50573,236.83911)"
       cx="38.259529"
       cy="64.117317"
       fx="38.259529"
       fy="64.117317"
       r="25.380083" />
    <radialGradient
       xlink:href="#linearGradient6755"
       id="radialGradient20153"
       gradientUnits="userSpaceOnUse"
       gradientTransform="matrix(1.060167,0,0,0.27601352,58.505731,106.83911)"
       cx="38.259529"
       cy="64.117317"
       fx="38.259529"
       fy="64.117317"
       r="25.380083" />
    <radialGradient
       xlink:href="#linearGradient6755"
       id="radialGradient2140"
       gradientUnits="userSpaceOnUse"
       gradientTransform="matrix(1.060167,0,0,0.27601352,58.50573,301.83911)"
       cx="38.259529"
       cy="64.117317"
       fx="38.259529"
       fy="64.117317"
       r="25.380083" />
    <radialGradient
       xlink:href="#linearGradient6755"
       id="radialGradient4853"
       gradientUnits="userSpaceOnUse"
       gradientTransform="matrix(1.060167,0,0,0.27601352,58.505731,366.83911)"
       cx="38.259529"
       cy="64.117317"
       fx="38.259529"
       fy="64.117317"
       r="25.380083" />
    <radialGradient
       xlink:href="#linearGradient6755"
       id="radialGradient4903"
       gradientUnits="userSpaceOnUse"
       gradientTransform="matrix(1.060167,0,0,0.27601352,58.50573,431.83911)"
       cx="38.259529"
       cy="64.117317"
       fx="38.259529"
       fy="64.117317"
       r="25.380083" />
    <radialGradient
       xlink:href="#linearGradient6755"
       id="radialGradient4953"
       gradientUnits="userSpaceOnUse"
       gradientTransform="matrix(1.060167,0,0,0.27601352,58.50573,496.83911)"
       cx="38.259529"
       cy="64.117317"
       fx="38.259529"
       fy="64.117317"
       r="25.380083" />
    <radialGradient
       xlink:href="#linearGradient6755"
       id="radialGradient5888"
       gradientUnits="userSpaceOnUse"
       gradientTransform="matrix(1.060167,0,0,0.27601352,58.505731,41.83911)"
       cx="38.259529"
       cy="64.117317"
       fx="38.259529"
       fy="64.117317"
       r="25.380083" />
  </defs>
  <metadata
     id="metadata2136">
    <rdf:RDF>
      <cc:Work
         rdf:about="">
        <dc:format>image/svg+xml</dc:format>
        <dc:type
           rdf:resource="http://purl.org/dc/dcmitype/StillImage" />
      </cc:Work>
    </rdf:RDF>
  </metadata>
  <rect
     style="color:#000000;display:inline;overflow:visible;visibility:visible;fill:#84a857;fill-opacity:1;fill-rule:evenodd;stroke:none;stroke-width:2;stroke-linecap:square;stroke-linejoin:round;stroke-miterlimit:4;stroke-dasharray:none;stroke-dashoffset:0;stroke-opacity:0.0588235;marker:none;marker-start:none;marker-mid:none;marker-end:none"
     id="rect2169"
     width="62.211555"
     height="62.211552"
     x="5"
     y="330" />
  <ellipse
     style="color:#000000;display:inline;overflow:visible;visibility:visible;fill:url(#radialGradient12856);fill-opacity:1;fill-rule:nonzero;stroke:none;stroke-width:2;stroke-linecap:square;stroke-linejoin:round;stroke-miterlimit:4;stroke-dasharray:none;stroke-dashoffset:0;stroke-opacity:1;marker:none;marker-start:none;marker-mid:none;marker-end:none"
     id="path11963"
     cx="35.930595"
     cy="383.91388"
     rx="25.380083"
     ry="7.0079331" />
  <path
     style="display:inline;fill:#ffd5d5;fill-opacity:1;fill-rule:evenodd;stroke:#000000;stroke-width:1;stroke-miterlimit:4;stroke-opacity:1"
     d="m 57.224327,355.92284 c 13.15673,12.93189 5.08649,14.21254 1.2972,11.42469 c -0.29555,5.75786 -0.59708,12.73323 -5.499227,15.76229 c -7.851445,4.85144 -25.867065,0.78869 -29.023815,0.78869 c -10.316997,-0.61178 -9.756219,-9.1999 -10.129204,-17.64278 c -4.3834017,2.95349 -12.1502047,-0.47932 0.329848,-10.20559 c 1.057814,-4.25794 1.796528,-8.91891 3.245376,-12.30196 c 4.13174,-7.61243 9.08408,-12.10597 17.80398,-11.59968 c 7.045229,0.40615 12.189316,4.26702 15.823913,9.1533 c 5.426989,7.29595 3.294789,9.76845 6.151929,14.62104 z"
     id="path2151" />
  <path
     style="display:inline;fill:#f7b9b9;fill-opacity:1;fill-rule:evenodd;stroke:none;stroke-width:1;stroke-miterlimit:4;stroke-opacity:1"
     d="m 35.229427,332.65741 c -4.269028,-0.24787 3.154783,6.1065 5.5625,8.46875 c 1.621053,1.59044 5.628794,8.05615 6.46875,10.625 c 0.885157,2.70709 2.8958,11.72373 3.03125,14.34375 c 0.09196,1.77872 3.75443,7.4119 2.3125,10.03125 c -0.75177,1.36562 -3.743144,0.70515 -5.90625,1.4375 c -1.55847,0.52764 -4.485896,3.73674 -6.28125,3.96875 c -3.416052,0.44145 -7.764016,-0.43421 -10.625,-1.8125 c -2.124954,-1.50478 -3.583155,-5.41042 -5.25,-7.4375 c -1.637008,-1.99079 -3.018179,-3.42572 -5.3125,-3.875 c -2.213592,-0.43347 -4.426459,5.48659 -3.75,8.8125 c 0.06416,0.20979 0.114143,0.4239 0.1875,0.625 c 1.144203,3.13672 3.348472,5.25713 8.34375,5.5625 c 0.01158,7.1e-4 0.01964,-6.9e-4 0.03125,0 c 0.900671,0.003 2.54322,0.25979 4.78125,0.5625 c 2.252459,0.30466 5.047,0.64039 7.96875,0.84375 c 5.843501,0.40672 12.241602,0.17802 15.96875,-2.125 c 2.30897,-1.42672 3.54295,-3.79102 4.25,-6.5625 c 0.70705,-2.77148 0.85214,-5.93194 1,-8.8125 l 0.0625,-0.90625 l 0.75,0.53125 c 0.86436,0.63593 1.99621,1.06226 2.96875,1.125 c 0.97254,0.0627 1.69838,-0.21546 2,-0.78125 c 0.30162,-0.56579 0.27697,-1.67577 -0.71875,-3.5 c -0.99572,-1.82423 -2.91949,-4.28783 -6.1875,-7.5 l -0.0625,-0.0625 l -0.03125,-0.0312 c -1.475,-2.50515 -1.66222,-4.43045 -2.15625,-6.53125 c -0.49403,-2.1008 -1.290114,-4.46139 -3.96875,-8.0625 c -3.575038,-4.80621 -8.560074,-8.54103 -15.4375,-8.9375 z"
     id="path18232" />
  <path
     style="fill:#ffeeaa;fill-rule:nonzero;stroke:#000000;stroke-width:1px;stroke-linecap:butt;stroke-linejoin:miter;stroke-opacity:1"
     d="m 17.07808,381.01881 c -1.274141,0.10652 -3.959145,1.68866 -3.03571,2.58928 c 0.718283,0.70054 2.636856,1.15336 4.290502,0.48898 c 0.05194,0.9841 2.032616,2.16281 3.214837,1.55159 c 0.982856,0.81168 2.411687,0.64524 3.208943,0.54873 c 2.320584,-0.28091 1.834542,-3.34006 0.714286,-3.92859 c -1.085753,-0.5704 -2.81835,0.7431 -3.548317,0.43856 c -1.199759,-0.50055 -3.566076,-1.79543 -4.844541,-1.68855 z"
     id="path4828" />
  <path
     style="fill:#ffeeaa;fill-rule:nonzero;stroke:#000000;stroke-width:1px;stroke-linecap:butt;stroke-linejoin:miter;stroke-opacity:1"
     d="m 52.12784,380.55737 c 2.968747,0.15625 4.642857,2.23214 4.910707,3.74999 c 0.21105,1.19594 -3.03571,1.33929 -3.03571,1.33929 c 0,0 -1.339284,-1.33928 -1.339284,-1.33928 c 0,0 1.319804,1.26565 1.319804,1.26565 c 0,0 -0.620707,1.50963 -1.409094,1.68077 c -0.724767,0.15734 -2.499995,-0.625 -2.499995,-0.625 l -1.160714,-1.33928 l 0.892857,1.51786 c 0,0 -2.589286,0.9375 -3.75,0.26786 c -1.160715,-0.66965 -2.34375,-1.60716 -0.892857,-3.39287 c 1.450893,-1.78571 3.995535,-3.28124 6.964286,-3.12499 z"
     id="path2171" />
  <path
     id="path16415"
     style="display:inline;fill:#000000;fill-opacity:0.0784314;fill-rule:evenodd;stroke:none;stroke-width:1;stroke-miterlimit:4;stroke-opacity:1"
     d="m 33.666927,332.12616 c -7.744187,0.10438 -12.345242,4.48835 -16.21875,11.625 c -1.448848,3.38304 -2.192188,8.05456 -3.25,12.3125 c -12.4800527,9.72627 -4.7271517,13.14099 -0.34375,10.1875 c 0.25161,5.69543 0.09734,11.47803 3.125,14.8125 c 0.03025,-0.004 0.06489,-0.0288 0.09375,-0.0312 c 1.278465,-0.10688 3.643993,1.18695 4.84375,1.6875 c 0.729967,0.30454 2.47675,-1.0079 3.5625,-0.4375 c 0.519849,0.2731 0.876622,1.06236 0.90625,1.875 c 4.011372,0.52653 11.6013,1.69943 18.1875,1.1875 c -0.0371,-0.51527 0.116483,-1.06885 0.59375,-1.65625 c 1.450892,-1.78571 3.999999,-3.28125 6.96875,-3.125 c 1.132336,0.0596 2.06305,0.39435 2.8125,0.875 c 3.05205,-3.48322 3.31214,-9.21625 3.5625,-14.09375 c 3.78929,2.78785 11.87548,1.49439 -1.28125,-11.4375 c -2.85714,-4.85258 -0.72926,-7.2978 -6.15625,-14.59375 c -3.634597,-4.88628 -8.767271,-8.75011 -15.8125,-9.15625 c -0.544994,-0.0316 -1.077471,-0.0382 -1.59375,-0.0312 z m -0.625,2.03125 c -10.454456,0.40763 -15.37545,11.68066 -16.53125,20.71875 c -0.191509,4.19131 -7.4617047,6.0455 -6.8749997,10.21875 c 2.9859567,1.44001 7.1504657,-5.44184 6.1999697,0.6531 c 0.716893,4.26253 -0.909202,10.8027 2.92503,13.5344 c 2.472829,1.76561 4.984958,0.57311 7.6875,1.21875 c 3.674881,3.94604 10.356235,2.29912 15.53125,2.96875 c 2.644916,-1.47315 5.073827,-5.06505 8.9375,-4.875 c 1.895112,-0.25169 4.135,1.22988 4.28125,-1.6875 c 1.40386,-4.26307 1.15266,-8.745 1.5,-13.1875 c 1.0969,0.44349 4.85506,4.13284 5.6875,2.3125 c -2.1892,-5.87578 -9.230319,-9.15554 -9.21875,-16.0625 c -2.342066,-8.67477 -10.616437,-16.60119 -20.125,-15.8125 z" />
  <rect
     style="color:#000000;display:inline;overflow:visible;visibility:visible;fill:#84a857;fill-opacity:1;fill-rule:evenodd;stroke:none;stroke-width:2;stroke-linecap:square;stroke-linejoin:round;stroke-miterlimit:4;stroke-dasharray:none;stroke-dashoffset:0;stroke-opacity:0.0588235;marker:none;marker-start:none;marker-mid:none;marker-end:none"
     id="rect19128"
     width="62.211555"
     height="62.211552"
     x="5"
     y="265" />
  <ellipse
     style="color:#000000;display:inline;overflow:visible;visibility:visible;fill:url(#radialGradient19142);fill-opacity:1;fill-rule:nonzero;stroke:none;stroke-width:2;stroke-linecap:square;stroke-linejoin:round;stroke-miterlimit:4;stroke-dasharray:none;stroke-dashoffset:0;stroke-opacity:1;marker:none;marker-start:none;marker-mid:none;marker-end:none"
     id="path19130"
     cx="35.804291"
     cy="319.54517"
     rx="25.380083"
     ry="7.0079331" />
  <path
     style="display:inline;fill:#ffd5d5;fill-opacity:1;fill-rule:evenodd;stroke:#000000;stroke-width:1;stroke-miterlimit:4;stroke-opacity:1"
     d="m 56.777261,289.24121 c 14.25763,11.70698 6.33376,13.70227 2.31094,11.26347 c 0.21914,5.76128 0.54091,12.73574 -4.07156,16.18993 c -7.38748,5.53234 -25.693645,3.09249 -28.837816,3.37403 c -10.330449,0.31078 -10.537833,-8.29314 -11.662313,-16.66911 c -4.102527,3.33266 -12.1445308,0.60621 -0.581648,-10.19433 c 0.673861,-4.33532 0.99394,-9.0436 2.1353,-12.54238 c 3.436362,-7.95058 7.968212,-12.86789 16.698518,-13.1413 c 7.053377,-0.2238 12.52129,3.16291 16.577188,7.70557 c 6.056051,6.78287 4.152858,9.43568 7.431391,14.01412 z"
     id="path19132" />
  <path
     style="display:inline;fill:#f7b9b9;fill-opacity:1;fill-rule:evenodd;stroke:none;stroke-width:1;stroke-miterlimit:4;stroke-opacity:1"
     d="m 39.090702,275.96901 c 1.756434,1.43953 7.039132,7.52205 8.104847,10.00575 c 1.123064,2.61736 3.840553,11.41875 4.209129,14.01625 c 0.250228,1.76343 3.775493,7.04752 2.572923,9.78503 c -0.626985,1.42723 -3.129624,2.28618 -5.2188,3.20853 c -1.505202,0.66452 -4.670478,2.87192 -6.437982,3.26312 c -3.363067,0.74435 -7.771806,0.25995 -10.744308,-0.85769 c -2.250685,-1.30927 -3.426398,-5.06929 -5.267391,-6.93964 c -1.808035,-1.83686 -3.936675,-3.14289 -6.261921,-3.38576 c -2.243428,-0.23433 -3.919501,5.8595 -2.949116,9.11182 c 0.08262,0.20323 0.151491,0.41203 0.242494,0.60579 c 1.419388,3.02217 3.803982,4.93755 8.806591,4.7962 c 0.0116,-3.3e-4 0.0195,-0.002 0.03112,-0.003 c 0.897375,-0.077 2.556255,0.0319 4.812364,0.13384 c 2.270655,0.10257 5.084001,0.18773 8.012245,0.1297 c 5.856487,-0.11605 12.208695,-0.91445 15.715599,-3.5407 c 2.17253,-1.62696 3.19073,-4.09189 3.64779,-6.91538 c 0.45706,-2.8235 0.3197,-5.9843 0.21007,-8.86657 l -0.01857,-0.90822 l 0.79439,0.46225 c 0.91763,0.55631 2.08299,0.87999 3.05725,0.85575 c 0.97426,-0.0243 1.6724,-0.36607 1.92236,-0.95651 c 0.24996,-0.59043 0.12641,-1.69379 -1.02803,-3.42195 c -1.15445,-1.72816 -3.29027,-4.01037 -6.83173,-6.91828 l -0.06783,-0.0567 l -0.03391,-0.0283 c -1.69254,-2.36362 -2.05073,-4.26455 -2.730147,-6.31292 c -0.679421,-2.04836 -1.682857,-4.32855 -4.671987,-7.67641 c -3.530029,-3.95368 -8.084798,-6.9734 -13.857115,-7.4651 c -5.501381,-0.4225 1.471401,5.89614 3.97966,7.87891 z"
     id="path19134" />
  <path
     style="fill:#ffeeaa;fill-rule:nonzero;stroke:#000000;stroke-width:1px;stroke-linecap:butt;stroke-linejoin:miter;stroke-opacity:1"
     d="m 19.029167,317.81761 c -1.259563,0.21973 -3.792761,2.03502 -2.792689,2.8497 c 0.777905,0.63369 2.729215,0.9136 4.317013,0.10438 c 0.139499,0.97555 2.21741,1.97292 3.340407,1.2587 c 1.051333,0.72079 2.459625,0.42758 3.245101,0.26035 c 2.28628,-0.48675 1.529347,-3.49036 0.361063,-3.97664 c -1.132294,-0.47129 -2.740846,0.9915 -3.495067,0.75327 c -1.239611,-0.39155 -3.711985,-1.47024 -4.975828,-1.24976 z"
     id="path19136" />
  <path
     style="fill:#ffeeaa;fill-rule:nonzero;stroke:#000000;stroke-width:1px;stroke-linecap:butt;stroke-linejoin:miter;stroke-opacity:1"
     d="m 54.236441,314.93297 c 1.26702,-0.17154 4.23064,0.7925 3.52384,1.8715 c -0.54979,0.8393 -2.32504,1.69632 -4.083224,1.40528 c 0.162114,0.97204 -1.516796,2.5512 -2.803222,2.21012 c -0.784067,1.00502 -2.215079,1.15152 -3.014343,1.22971 c -2.326415,0.22759 -2.513451,-2.86428 -1.546977,-3.68115 c 0.9367,-0.79171 2.912359,0.11602 3.559194,-0.33918 c 1.06311,-0.74816 3.093404,-2.52415 4.364732,-2.69628 z"
     id="path19144" />
  <path
     id="path19158"
     style="display:inline;fill:#000000;fill-opacity:0.0784314;fill-rule:evenodd;stroke:none;stroke-width:1;stroke-miterlimit:4;stroke-opacity:1"
     d="m 32.760681,267.51366 c -8.730306,0.27341 -13.251138,5.20567 -16.6875,13.15625 c -1.14136,3.49878 -1.451139,8.19594 -2.125,12.53125 c -11.5628828,10.80054 -3.540029,13.52015 0.5625,10.1875 c 0.759256,5.65551 1.115979,11.41977 4.4375,14.46875 c 0.02929,-0.006 0.06567,-0.0263 0.09375,-0.0312 c 1.263843,-0.22047 3.729137,0.85844 4.96875,1.25 c 0.754221,0.23823 2.367707,-1.22129 3.5,-0.75 c 0.540224,0.22486 0.958407,0.97762 1.0625,1.78125 c 3.830566,0.15771 10.935103,0.62906 17.21875,-0.25 c -0.09595,-0.75448 0.111639,-1.52034 0.53125,-1.875 c 0.9367,-0.79171 2.915665,0.11145 3.5625,-0.34375 c 1.063107,-0.74816 3.072422,-2.54662 4.34375,-2.71875 c 0.56966,-0.0771 1.4822,0.0858 2.25,0.375 c 3.05361,-3.72488 2.78609,-9.72451 2.59375,-14.78125 c 4.02282,2.43879 11.97638,0.42573 -2.28125,-11.28125 c -3.278533,-4.57844 -1.38145,-7.21713 -7.4375,-14 c -4.055898,-4.54266 -9.540375,-7.94255 -16.59375,-7.71875 z m -0.65625,2.03125 c -10.793909,0.33452 -15.753742,12.39215 -15.849688,21.61639 c 0.573906,4.69112 -6.8465808,6.96151 -6.056562,11.47736 c 3.047498,1.0825 6.763523,-5.89137 6.247104,0.22683 c 1.016482,4.06857 0.201829,10.29291 3.815396,12.99192 c 2.639954,1.47759 4.915273,0.55479 7.59375,0.46875 c 3.056958,3.0646 7.722365,1.82203 11.875,2 c 2.878489,0.52899 4.409407,-0.68005 6.21875,-2.40625 c 2.651133,0.0344 4.576241,-0.92222 6.6875,-2.5625 c 1.88716,-0.59244 3.83172,-0.0688 3.9375,-2.6875 c 1.03404,-4.45477 0.43325,-9.14465 0.375,-13.71875 c 0.94015,0.48545 5.61907,3.99251 5.84375,1.71875 c -2.98737,-5.45441 -9.84977,-8.2734 -10.59375,-15 c -2.922126,-8.02637 -11.213659,-14.91102 -20.09375,-14.125 z" />
  <rect
     style="color:#000000;display:inline;overflow:visible;visibility:visible;fill:#84a857;fill-opacity:1;fill-rule:evenodd;stroke:none;stroke-width:2;stroke-linecap:square;stroke-linejoin:round;stroke-miterlimit:4;stroke-dasharray:none;stroke-dashoffset:0;stroke-opacity:0.0588235;marker:none;marker-start:none;marker-mid:none;marker-end:none"
     id="rect1898"
     width="62.211555"
     height="62.211552"
     x="5"
     y="200" />
  <ellipse
     style="color:#000000;display:inline;overflow:visible;visibility:visible;fill:url(#radialGradient1912);fill-opacity:1;fill-rule:nonzero;stroke:none;stroke-width:2;stroke-linecap:square;stroke-linejoin:round;stroke-miterlimit:4;stroke-dasharray:none;stroke-dashoffset:0;stroke-opacity:1;marker:none;marker-start:none;marker-mid:none;marker-end:none"
     id="path1900"
     cx="35.804291"
     cy="254.54517"
     rx="25.380083"
     ry="7.0079331" />
  <path
     style="fill:#ffeeaa;fill-rule:nonzero;stroke:#000000;stroke-width:1px;stroke-linecap:butt;stroke-linejoin:miter;stroke-opacity:1"
     d="m 54.379601,246.45412 c 1.248,-0.278 4.28248,0.43216 3.66939,1.56702 c -0.4769,0.88276 -2.17338,1.88673 -3.94987,1.7453 c 0.24367,0.95487 -1.295785,2.67025 -2.606432,2.4391 c -0.696335,1.06768 -2.109848,1.33459 -2.899646,1.48004 c -2.298862,0.42336 -2.746503,-2.64164 -1.852515,-3.53726 c 0.866447,-0.86803 2.911746,-0.1305 3.517802,-0.63873 c 0.996085,-0.83532 2.869039,-2.77653 4.121271,-3.05547 z"
     id="path1908" />
  <path
     style="display:inline;fill:#ffd5d5;fill-opacity:1;fill-rule:evenodd;stroke:#000000;stroke-width:1;stroke-miterlimit:4;stroke-opacity:1"
     d="m 54.071271,221.70905 c 15.28928,8.39142 8.02386,12.26452 3.25448,11.02789 c 0.7052,5.72216 0.38239,11.31533 -3.921687,15.14694 c -6.893553,6.13682 -24.107618,6.58179 -27.216752,7.12801 c -10.267236,1.18263 -11.200942,-7.37299 -13.029201,-15.62397 c -3.4126398,4.08207 -11.3742858,2.20025 -1.441027,-10.10872 c 0.3051,-4.37676 0.226167,-9.09524 1.067784,-12.67796 c 2.752217,-8.21253 6.852326,-13.49521 15.528301,-14.50538 c 7.009236,-0.81904 12.743781,2.0935 17.169044,6.27717 c 6.607567,6.24685 4.935354,9.051 8.589058,13.33602 z"
     id="path1902" />
  <path
     style="display:inline;fill:#f7b9b9;fill-opacity:1;fill-rule:evenodd;stroke:none;stroke-width:1;stroke-miterlimit:4;stroke-opacity:1"
     d="m 35.822216,209.32306 c 1.871794,1.28595 8.138797,7.5699 9.410582,9.95466 c 1.340225,2.5131 5.041123,10.65748 5.627879,13.21454 c 0.398351,1.73599 3.123934,7.07292 2.156993,9.90226 c -0.504135,1.4751 -2.063268,3.19647 -4.067029,4.29207 c -1.443667,0.78934 -5.27277,2.59937 -7.000894,3.13854 c -3.288135,1.02588 -7.726535,0.93013 -10.782849,0.0677 c -2.353269,-1.1144 -3.232422,-5.16963 -5.224882,-6.87772 c -1.956789,-1.6775 -4.799116,-2.37795 -7.136568,-2.42346 c -2.255201,-0.0439 -3.400284,6.15077 -2.158537,9.30945 c 0.09736,0.19066 0.194682,0.38937 0.29928,0.5705 c 1.669652,2.89134 4.18403,4.61668 9.156515,4.05324 c 0.01167,-0.001 0.01944,-0.001 0.03114,-0.003 c 0.848216,-0.14685 2.461484,-0.27179 4.600534,-0.48424 c 2.153498,-0.2139 4.809524,-0.51658 7.568679,-0.98687 c 5.518309,-0.94056 11.474517,-2.61437 14.771395,-5.54933 c 4.132858,-3.67919 4.436978,-9.04781 3.738878,-14.71233 l -0.06074,-0.71618 l 0.70617,0.19101 c 1.10111,0.28551 2.37156,0.25532 3.38405,-0.0361 c 1.0125,-0.29141 1.72115,-0.80738 1.91044,-1.51059 c 0.18928,-0.7032 -0.10067,-1.77626 -1.43468,-3.23408 c -1.33401,-1.45783 -3.68325,-3.24273 -7.4767,-5.32474 l -0.0987,-0.0544 l -0.03642,-0.0596 c -1.886221,-2.21214 -2.423509,-4.07391 -3.273593,-6.05754 c -0.850082,-1.98363 -2.027876,-4.18323 -5.289218,-7.26653 c -3.407636,-3.2216 -7.562317,-5.64512 -12.488862,-6.16216 c -4.564953,-0.48994 -1.213589,4.06989 3.167136,6.76454 z"
     id="path1916" />
  <path
     style="fill:#ffeeaa;fill-rule:nonzero;stroke:#000000;stroke-width:1px;stroke-linecap:butt;stroke-linejoin:miter;stroke-opacity:1"
     d="m 18.799433,251.94531 c -2.891577,1.03564 -2.85921,1.38886 -2.543701,2.89752 c 0.246631,1.17932 3.44265,1.50017 3.44265,1.50017 c 0,0 0.713665,-0.8578 0.713665,-0.8578 c 0,0 -0.700476,0.78279 -0.700476,0.78279 c 0,0 -0.04966,1.1479 1.590568,1.55191 c 1.625825,0.40047 2.393756,-0.83025 2.393756,-0.83025 l 0.414377,-0.73738 l -0.406832,0.82635 c 0,0 1.425036,0.95822 3.486352,0.95883 c 2.105794,6.2e-4 2.746873,-2.74195 1.150264,-4.39866 c -0.780233,-0.80962 -3.026032,0.25369 -4.223789,-0.22195 c -1.253225,-0.49766 -2.453434,-2.4971 -5.316834,-1.47153 z"
     id="path1914" />
  <path
     id="path2825"
     style="display:inline;fill:#000000;fill-opacity:0.0784314;fill-rule:evenodd;stroke:none;stroke-width:1;stroke-miterlimit:4;stroke-opacity:1"
     d="m 28.304533,202.0887 c -8.675975,1.01018 -12.763842,6.30683 -15.516059,14.51935 c -0.841618,3.58272 -0.753362,8.28924 -1.058462,12.666 c -9.9332588,12.30896 -1.9912718,14.1856 1.42137,10.10353 c 1.095813,4.94544 1.897358,10.00372 4.552802,13.00554 c 0.313116,-0.13201 0.653674,-0.28062 1.091928,-0.43759 c 2.863401,-1.02556 4.076804,0.96341 5.33003,1.46107 c 1.197757,0.47563 3.442461,-0.57185 4.222697,0.23777 c 0.315809,0.32769 0.508862,0.6904 0.655554,1.07344 c 5.982787,-0.56441 18.668687,-1.74656 24.384633,-6.83504 c 4.304085,-3.83161 4.627725,-9.41345 3.922515,-15.13561 c 4.76938,1.23662 12.06289,-2.6567 -3.2264,-11.04812 c -3.6537,-4.28502 -1.986382,-7.07458 -8.593948,-13.32143 c -4.425263,-4.18367 -10.177426,-7.10794 -17.18666,-6.28891 z m -0.482255,2.07944 c -10.727032,1.24546 -14.65021,13.67908 -13.96633,22.87843 c 0.894544,4.46981 -6.1291478,8.07285 -4.5973938,12.2848 c 3.1223638,0.0969 5.3119598,-7.25793 5.6530938,-1.19495 c 1.2855,3.60649 1.03733,9.69472 4.10969,11.65738 c 3.4154,-1.08003 5.489281,2.90376 8.851842,1.5701 c 5.436063,2.49995 12.164992,-0.42891 17.925053,-1.64562 c 6.778237,-1.40325 11.006588,-8.04507 9.728528,-14.71849 c -1.31079,-4.40823 0.22877,-4.89467 4.07888,-4.04666 c 3.89557,-0.20732 -0.71663,-3.98101 -2.00264,-4.75402 c -5.42253,-1.95805 -7.642492,-6.92782 -9.658371,-11.81986 c -4.286002,-6.56838 -12.01926,-11.64151 -20.122352,-10.21111 z" />
  <rect
     style="color:#000000;display:inline;overflow:visible;visibility:visible;fill:#84a857;fill-opacity:1;fill-rule:evenodd;stroke:none;stroke-width:2;stroke-linecap:square;stroke-linejoin:round;stroke-miterlimit:4;stroke-dasharray:none;stroke-dashoffset:0;stroke-opacity:1;marker:none;marker-start:none;marker-mid:none;marker-end:none"
     id="rect3726"
     width="62.211555"
     height="62.211552"
     x="5"
     y="135" />
  <ellipse
     style="color:#000000;display:inline;overflow:visible;visibility:visible;fill:url(#radialGradient3740);fill-opacity:1;fill-rule:nonzero;stroke:none;stroke-width:2;stroke-linecap:square;stroke-linejoin:round;stroke-miterlimit:4;stroke-dasharray:none;stroke-dashoffset:0;stroke-opacity:1;marker:none;marker-start:none;marker-mid:none;marker-end:none"
     id="path3728"
     cx="35.804291"
     cy="189.54518"
     rx="25.380083"
     ry="7.0079331" />
  <path
     style="fill:#ffeeaa;fill-rule:nonzero;stroke:#000000;stroke-width:1px;stroke-linecap:butt;stroke-linejoin:miter;stroke-opacity:1"
     d="m 53.681238,177.83959 c 1.229723,-0.35011 6.532503,0.004 5.986443,1.17241 c -0.42475,0.909 -3.04212,3.08135 -4.82382,3.04347 c 0.29879,0.93909 -1.138313,2.74109 -2.460184,2.58655 c -0.633066,1.10637 -2.028665,1.45503 -2.808668,1.64616 c -2.270351,0.55633 -2.895477,-2.47745 -2.055086,-3.42354 c 0.814501,-0.91695 2.899229,-0.29961 3.474703,-0.84223 c 0.945822,-0.89183 1.452717,-3.83153 2.686612,-4.18282 z"
     id="path3730" />
  <path
     style="display:inline;fill:#ffd5d5;fill-opacity:1;fill-rule:evenodd;stroke:#000000;stroke-width:1;stroke-miterlimit:4;stroke-opacity:1"
     d="m 10.238332,165.18766 c 0.05006,-4.38709 -0.3031418,-9.093 0.328701,-12.7186 c 2.269967,-8.35868 6.055927,-13.87086 14.658473,-15.38387 c 6.949743,-1.22526 12.843959,1.34886 17.505031,5.2681 c 6.959665,5.85202 5.453355,8.74867 9.350067,12.81396 l 3e-6,2e-5 c 16.572154,5.40464 9.986204,9.88311 3.890294,10.81997 c 1.03677,5.67146 1.03977,11.27394 -3.034197,15.34936 c -6.525005,6.52733 -23.68406,7.97261 -26.756167,8.69872 c -10.099802,1.76352 -11.525239,-6.32575 -13.806047,-14.41413 c -3.064609,1.79024 -8.0615966,0.36217 -2.136158,-10.43353 z"
     id="path3732" />
  <path
     style="display:inline;fill:#f7b9b9;fill-opacity:1;fill-rule:evenodd;stroke:none;stroke-width:1;stroke-miterlimit:4;stroke-opacity:1"
     d="m 33.135681,143.85116 c 1.943414,1.17493 8.560434,7.09949 9.96875,9.40625 c 1.484104,2.43091 5.671783,10.35639 6.40625,12.875 c 0.498634,1.70989 3.519517,6.86922 2.71875,9.75 c -0.417499,1.50192 -1.250844,3.85669 -3.1875,5.06696 c -1.395318,0.87197 -5.743656,2.35679 -7.4375,2.99554 c -3.222909,1.21536 -7.648704,1.37075 -10.75,0.6875 c -2.414098,-0.97566 -2.197293,-4.43746 -4.285714,-6.02679 c -2.05103,-1.56086 -4.913858,-2.0905 -7.25,-2 c -2.107329,0.0816 -4.167176,5.45969 -3.089286,8.74554 c 0.0029,0.009 -0.003,0.0224 0,0.0312 c 0.155553,0.27749 0.329745,0.5572 0.5,0.8125 c 1.816875,2.72446 4.40849,4.19635 9.34375,3.34375 c 0.0055,-0.001 0.02566,0.001 0.03125,0 c 0.83818,-0.19594 2.439249,-0.41348 4.5625,-0.75 c 2.137414,-0.33877 4.741614,-0.77631 7.46875,-1.40625 c 5.454272,-1.25988 11.316882,-3.28452 14.4375,-6.40625 c 3.9119,-3.9133 3.93258,-9.29192 2.90625,-14.90625 l -0.09375,-0.5 l 0.5,-0.0625 c 1.47822,-0.22718 3.00876,-0.6809 4.15625,-1.28125 c 1.14749,-0.60035 1.87453,-1.35042 2,-2.0625 c 0.12547,-0.71208 -0.2695,-1.61069 -1.8125,-2.75 c -1.543,-1.13931 -4.19809,-2.43943 -8.3125,-3.78125 l -0.125,-0.0312 l -0.0625,-0.0937 c -2.011678,-2.0987 -2.661,-3.91291 -3.625,-5.84375 c -0.964,-1.93084 -2.252368,-4.04908 -5.6875,-6.9375 c -3.089944,-2.59817 -6.707844,-4.56113 -10.811479,-5.2075 c -4.028316,-0.6286 -2.433781,3.79407 1.530229,6.3325 z"
     id="path3742" />
  <path
     style="fill:#ffeeaa;fill-rule:nonzero;stroke:#000000;stroke-width:1px;stroke-linecap:butt;stroke-linejoin:miter;stroke-opacity:1"
     d="m 18.98397,188.29642 c -2.826457,1.20205 -2.773604,1.55279 -2.370894,3.04054 c 0.314796,1.16299 3.524065,1.29743 3.524065,1.29743 c 0,0 0.841144,-1.70142 0.841144,-1.70142 c 0,0 -0.832339,1.62577 -0.832339,1.62577 c 0,0 0.01718,1.14885 1.678126,1.45679 c 1.646362,0.30524 2.341422,-0.96806 2.341422,-0.96806 l 0.46008,-1.38523 l -0.447374,1.47362 c 0,0 1.478349,0.87372 3.536212,0.75446 c 2.102266,-0.12185 2.582769,-2.89706 0.892517,-4.45811 c -0.825995,-0.76288 -2.916872,-1.08862 -4.140262,-1.4938 c -1.280045,-0.42394 -2.683785,-0.83234 -5.482697,0.35801 z"
     id="path3736" />
  <path
     id="path3760"
     style="display:inline;fill:#000000;fill-opacity:0.0784314;fill-rule:evenodd;stroke:none;stroke-width:1;stroke-miterlimit:4;stroke-opacity:1"
     d="m 18.260681,188.63251 c 0.22097,-0.1017 0.446678,-0.22804 0.71875,-0.34375 c 2.798912,-1.19035 4.219955,-0.76769 5.5,-0.34375 c 1.22339,0.40518 3.299008,0.73713 4.125,1.5 c 0.05869,0.0542 0.102772,0.0993 0.15625,0.15625 c 5.850534,-0.89903 18.716265,-2.77682 24.1875,-8.25 c 4.07397,-4.07542 4.06802,-9.70354 3.03125,-15.375 c 6.09591,-0.93686 12.66591,-5.40785 -3.90625,-10.8125 c -3.896712,-4.06528 -2.384082,-6.96048 -9.34375,-12.8125 c -4.078438,-3.42934 -9.0898,-5.83705 -14.9375,-5.5625 v -1e-4 c -0.835386,0.0392 -1.693782,0.12809 -2.5625,0.28125 c -8.602546,1.51301 -12.386283,7.04757 -14.65625,15.40625 c -0.6318428,3.6256 -0.293693,8.33166 -0.34375,12.71875 c -5.9186128,10.78327 -0.9320728,12.20855 2.125,10.4063 c 1.469868,5.21139 2.589506,10.44995 5.90625,13.0313 z m 9.65625,-49.84385 c -10.907042,-0.26047 -16.996908,11.68364 -15.71875,21.40625 c 1.759725,5.06554 -3.4392038,9.30542 -2.4687498,14 c 2.5317248,0.78597 2.1259388,-0.0532 2.5477148,-0.29748 c 2.103588,-0.70165 2.278915,-0.37671 3.046035,5.04748 c 1.166684,2.40741 1.609115,8.86535 5.5625,6.6875 c 4.857766,-0.57038 9.097468,3.41809 13.950064,0.90134 c 4.705061,-0.95534 11.045774,-1.773 15.22485,-4.89731 c 2.528521,-1.89033 4.209116,-4.90809 4.418836,-8.50403 c 1.32997,-2.95916 -2.897326,-8.83156 1.15625,-9.125 c 2.00103,-0.10284 7.53978,-1.97437 3.09375,-3.84375 c -4.20939,-2.37824 -9.859025,-2.98513 -11.3125,-8.4375 c -3.228512,-7.44914 -11.32582,-13.25414 -19.5,-12.9375 z" />
  <rect
     style="color:#000000;display:inline;overflow:visible;visibility:visible;fill:#84a857;fill-opacity:1;fill-rule:evenodd;stroke:none;stroke-width:2;stroke-linecap:square;stroke-linejoin:round;stroke-miterlimit:4;stroke-dasharray:none;stroke-dashoffset:0;stroke-opacity:1;marker:none;marker-start:none;marker-mid:none;marker-end:none"
     id="rect5544"
     width="62.211555"
     height="62.211552"
     x="5"
     y="70" />
  <ellipse
     style="color:#000000;display:inline;overflow:visible;visibility:visible;fill:url(#radialGradient5558);fill-opacity:1;fill-rule:nonzero;stroke:none;stroke-width:2;stroke-linecap:square;stroke-linejoin:round;stroke-miterlimit:4;stroke-dasharray:none;stroke-dashoffset:0;stroke-opacity:1;marker:none;marker-start:none;marker-mid:none;marker-end:none"
     id="path5546"
     cx="35.804291"
     cy="124.54517"
     rx="25.380083"
     ry="7.0079331" />
  <path
     style="fill:#ffeeaa;fill-rule:nonzero;stroke:#000000;stroke-width:1px;stroke-linecap:butt;stroke-linejoin:miter;stroke-opacity:1"
     d="m 52.495113,111.82606 c 1.208134,-0.41859 6.879557,-4.38077 6.399957,-3.18336 c -0.37305,0.93141 0.17138,3.96156 -1.60964,4.02376 c 0.35104,0.92083 -0.35764,3.51495 -1.6861,3.43486 c -0.56996,1.14017 -0.33664,3.44162 -1.10468,3.67624 c -2.235547,0.6829 -1.69071,-2.22172 -6.083327,-3.7492 c -4.233673,-1.47222 1.984981,-1.62261 2.529086,-2.19668 c 0.894265,-0.94352 0.342475,-1.58561 1.554704,-2.00562 z"
     id="path5548" />
  <path
     style="display:inline;fill:#ffd5d5;fill-opacity:1;fill-rule:evenodd;stroke:#000000;stroke-width:1;stroke-miterlimit:4;stroke-opacity:1"
     d="m 50.19059,88.922208 c 18.18871,1.608652 10.9717,7.164072 4.13443,9.423802 c 1.35351,5.60432 2.02816,12.35851 -1.8106,16.6562 c -6.148287,6.88334 -23.199149,9.2896 -26.225649,10.18703 c -10.065234,2.34645 -11.891868,-5.79815 -14.649665,-13.78663 c 1.908334,-0.019 3.354127,-2.38872 2.996736,-1.946 c -2.456983,3.04364 -11.6716563,4.40062 -5.6590186,-8.18087 c -0.196302,-4.38298 -0.813123,-9.06164 -0.385808,-12.716993 c 1.7971506,-8.472931 5.2677006,-14.188951 13.7717436,-16.182501 c 6.87,-1.613476 12.899426,0.625698 17.773165,4.277101 c 7.277208,5.452094 5.935884,8.428735 10.054666,12.268861 z"
     id="path5550" />
  <path
     style="display:inline;fill:#f7b9b9;fill-opacity:1;fill-rule:evenodd;stroke:none;stroke-width:1;stroke-miterlimit:4;stroke-opacity:1"
     d="m 29.47943,72.55116 c -2.842316,-0.124318 -4.01397,3.209817 1.15625,6.125 c 2.006307,1.063977 8.964408,6.619683 10.5,8.84375 c 1.618232,2.34376 6.219053,10.02659 7.09375,12.5 c 0.593839,1.6792 3.919034,6.64131 3.28125,9.5625 c -0.332523,1.52299 -0.862018,4.29006 -2.727679,5.60714 c -1.344166,0.94893 -5.594685,2.67342 -7.25,3.40625 c -3.1496,1.39437 -7.73131,1.43218 -10.866071,0.92411 c -2.465066,-0.8386 -1.981901,-3.24916 -4.15625,-4.71875 c -2.135418,-1.44326 -5.047622,-1.81525 -7.375,-1.59375 c -2.09942,0.19981 -4.2919,4.65484 -3.03125,7.875 c 0.0034,0.009 -0.0035,0.0225 0,0.0312 c 0.166713,0.25948 0.352514,0.51209 0.53125,0.75 c 0.005,0.007 -0.005,0.0245 0,0.0312 c 1.965493,2.60546 4.63242,3.93804 9.5,2.8125 c 0.0054,-0.002 0.02582,0.002 0.03125,0 c 0.825793,-0.2427 2.430046,-0.54477 4.53125,-1 c 2.115026,-0.45822 4.718778,-1.06171 7.40625,-1.84375 c 5.374944,-1.56409 11.090802,-3.89551 14.03125,-7.1875 c 3.64599,-4.08188 3.05964,-10.66669 1.71875,-16.21875 l -0.125,-0.4375 l 0.4375,-0.15625 c 1.67624,-0.554 3.38299,-1.29277 4.6875,-2.125 c 1.30451,-0.83223 2.1734,-1.76155 2.3125,-2.4375 c 0.06955,-0.33797 -0.01113,-0.62136 -0.28125,-0.96875 c -0.27012,-0.34739 -0.78502,-0.75464 -1.625,-1.125 c -1.67995,-0.74072 -4.60587,-1.38157 -9.125,-1.78125 l -0.15625,-0.03125 l -0.125,-0.09375 c -2.126322,-1.982466 -2.866627,-3.782573 -3.9375,-5.65625 c -1.070873,-1.873677 -2.501888,-3.902722 -6.09375,-6.59375 c -2.888202,-2.163839 -6.142021,-3.785891 -9.75,-4.40625 c -0.202853,-0.04021 -0.404262,-0.08546 -0.59375,-0.09375 z"
     id="path5562" />
  <path
     style="fill:#ffeeaa;fill-rule:nonzero;stroke:#000000;stroke-width:1px;stroke-linecap:butt;stroke-linejoin:miter;stroke-opacity:1"
     d="m 19.005935,123.85708 c -2.75452,1.35882 -3.30706,2.06319 -2.821467,3.52598 c 0.379587,1.14349 4.216342,0.74041 4.216342,0.74041 c 0,0 0.744304,-1.74595 0.744304,-1.74595 c 0,0 -0.739759,1.66993 -0.739759,1.66993 c 0,0 -0.0076,1.50321 1.667974,1.71743 c 1.660901,0.21233 2.372671,-1.45512 2.372671,-1.45512 l 0.381591,-1.40887 l -0.363943,1.49641 c 0,0 1.43578,1.32506 3.483703,1.09047 c 2.092111,-0.23968 2.505348,-3.5732 0.730128,-5.0369 c -0.867518,-0.71531 -2.973384,-2.12851 -4.217591,-2.46438 c -1.301825,-0.35141 -2.726278,0.52499 -5.453953,1.87059 z"
     id="path5554" />
  <path
     style="display:inline;fill:#f7b9b9;fill-opacity:1;fill-rule:evenodd;stroke:none;stroke-width:1;stroke-miterlimit:4;stroke-opacity:1"
     d="m 14.26068,109.14491 c -0.529704,0.65618 -1.498884,1.29307 -2.53125,1.625 c -0.258092,0.083 -0.522866,0.0806 -0.78125,0.125 c -0.775152,0.13334 -1.5509146,0.13838 -2.1249996,-0.125 c 0.991149,-0.80004 1.4624416,-1.58018 2.7618136,-2.83542 c 1.579667,-1.52601 3.649854,-0.2103 2.675686,1.21042 z"
     id="path5607" />
  <path
     id="path5617"
     style="display:inline;fill:#000000;fill-opacity:0.0784314;fill-rule:evenodd;stroke:none;stroke-width:1;stroke-miterlimit:4;stroke-opacity:1"
     d="m 26.13568,71.86366 c -1.226945,0.04772 -2.493125,0.197473 -3.78125,0.5 c -8.504043,1.99355 -11.952848,7.714569 -13.7499996,16.1875 c -0.427315,3.65535 0.178696,8.33577 0.375,12.71875 c -6.0126377,12.58149 3.1992686,11.23114 5.6562496,8.1875 c 0.357391,-0.44272 -1.091666,1.91845 -3,1.9375 c 1.782226,5.16256 3.176892,10.3932 6.65625,12.8125 c 0.222931,-0.11849 0.457071,-0.21466 0.71875,-0.34375 c 2.727675,-1.3456 4.135672,-2.22641 5.4375,-1.875 c 1.244207,0.33586 3.35123,1.75344 4.21875,2.46875 c 0.05823,0.048 0.102708,0.10439 0.15625,0.15625 c 5.779916,-1.22398 18.525368,-3.84571 23.6875,-9.625 c 3.83876,-4.29769 3.16601,-11.05193 1.8125,-16.65625 c 6.83727,-2.25974 14.06371,-7.7976 -4.125,-9.40625 c -4.118782,-3.840126 -2.785292,-6.829155 -10.0625,-12.28125 c -3.959913,-2.966765 -8.683239,-4.988054 -14,-4.78125 z m -0.75,2.0625 c -10.79036,0.169684 -16.4469896,12.088261 -14.753778,21.59202 c 1.720963,4.89644 -1.8450046,8.84016 -1.4962216,13.50173 c 1.6674396,1.61452 3.0958236,-0.95537 4.7270436,-0.47648 c 1.657391,0.48658 3.571601,2.13376 0.429206,4.00773 c 0.838405,3.15085 1.947962,6.74878 4.28125,9.28125 c 3.345999,-2.65647 7.752741,-2.2579 10.78125,0.625 c 5.849229,-1.63998 13.60922,-2.1617 18.859516,-5.73235 c 1.932834,-1.3145 3.178206,-3.42813 4.359234,-5.6114 c 1.63491,-4.576 0.486532,-9.53079 -0.625,-14.09375 c 2.25487,-0.92712 6.72665,-1.88086 7.4375,-4.0625 c -4.64831,-2.48739 -11.491236,-0.44028 -13.625,-6.5 c -3.588902,-7.541178 -11.948162,-13.217168 -20.375,-12.53125 z m -6.8125,47.90625 c -0.103643,0.0325 0.04293,0.0577 0,0 z" />
  <rect
     style="color:#000000;display:inline;overflow:visible;visibility:visible;fill:#84a857;fill-opacity:1;fill-rule:evenodd;stroke:none;stroke-width:2;stroke-linecap:square;stroke-linejoin:round;stroke-miterlimit:4;stroke-dasharray:none;stroke-dashoffset:0;stroke-opacity:0.0588235;marker:none;marker-start:none;marker-mid:none;marker-end:none"
     id="rect6514"
     width="62.211555"
     height="62.211552"
     x="5"
     y="5" />
  <ellipse
     style="color:#000000;display:inline;overflow:visible;visibility:visible;fill:url(#radialGradient6530);fill-opacity:1;fill-rule:nonzero;stroke:none;stroke-width:2;stroke-linecap:square;stroke-linejoin:round;stroke-miterlimit:4;stroke-dasharray:none;stroke-dashoffset:0;stroke-opacity:1;marker:none;marker-start:none;marker-mid:none;marker-end:none"
     id="path6516"
     cx="35.804291"
     cy="59.545181"
     rx="25.380083"
     ry="7.0079331" />
  <path
     style="fill:#ffeeaa;fill-rule:nonzero;stroke:#000000;stroke-width:1px;stroke-linecap:butt;stroke-linejoin:miter;stroke-opacity:1"
     d="m 51.05909,44.929424 c 1.185035,-0.480101 6.64543,-4.7284 6.22798,-3.507934 c -0.32471,0.949345 0.37466,3.947526 -1.40081,4.101138 c 0.39788,0.90158 -0.1766,3.528681 -1.507434,3.516942 c -0.51063,1.167945 -0.15939,3.45437 -0.91436,3.728135 c -2.19751,0.796843 -1.802608,-2.131931 -6.267894,-3.431738 c -4.303713,-1.252785 1.899004,-1.722439 2.412899,-2.323703 c 0.844614,-0.988214 0.260567,-1.60111 1.449619,-2.08284 z"
     id="path6518" />
  <path
     style="display:inline;fill:#ffd5d5;fill-opacity:1;fill-rule:evenodd;stroke:#000000;stroke-width:1;stroke-miterlimit:4;stroke-opacity:1"
     d="m 48.473188,22.862541 c 18.626152,-0.779952 10.946442,6.149035 3.539802,7.99941 c 1.639626,5.527388 3.73366,13.437558 0.120736,17.926777 c -5.786559,7.1901 -22.691293,10.469116 -25.667694,11.520837 c -9.931403,2.860421 -12.174028,-5.179587 -15.338566,-13.015846 c 1.904836,-0.11706 3.226986,-2.557874 2.89281,-2.097378 c -2.297382,3.16584 -7.48427,3.479174 -6.071813,-7.879354 c -0.421204,-4.367109 -1.277562,-9.007904 -1.038593,-12.680382 c 1.359508,-8.554066 4.531834,-14.440827 12.922236,-16.868613 c 6.778041,-1.96427 12.914536,-0.03779 17.969419,3.358414 c 7.547683,5.071052 6.361046,8.112669 10.671663,11.736135 z"
     id="path6520" />
  <path
     style="display:inline;fill:#f7b9b9;fill-opacity:1;fill-rule:evenodd;stroke:none;stroke-width:1;stroke-miterlimit:4;stroke-opacity:1"
     d="m 27.541931,7.62616 c -5.124329,0.449337 -1.326738,3.949145 1.375,5.75 c 2.05832,0.959503 9.289681,6.170256 10.9375,8.3125 c 1.736497,2.257534 6.218144,9.918541 7.21875,12.34375 c 0.679321,1.646477 4.836336,3.236292 3.78125,9.40625 c -0.262761,1.536564 -0.829463,3.963817 -2.625,5.375 c -1.293644,1.01673 -5.447017,2.964351 -7.0625,3.78125 c -3.073808,1.554331 -5.812028,2.440111 -8.96875,2.09375 c -2.504894,-0.710858 -2.409276,-2.394051 -4.65625,-3.75 c -2.206741,-1.331655 -5.124574,-1.559519 -7.4375,-1.21875 c -2.086383,0.307398 -5.455661,3.848854 -4.03125,7 c 0.0049,0.0069 -0.0049,0.02432 0,0.03125 c 0.18365,0.258731 0.366445,0.515198 0.5625,0.75 c 2.103797,2.519582 4.851139,3.705459 9.6875,2.3125 v 0.03125 c 0.81217,-0.284808 2.393522,-0.687381 4.46875,-1.25 c 2.088694,-0.56627 4.637502,-1.299679 7.28125,-2.21875 c 5.287497,-1.838142 10.888798,-4.467548 13.65625,-7.90625 c 1.686945,-2.096106 2.083695,-5.055021 1.812495,-8.21875 c -0.271193,-3.163729 -1.182174,-6.493012 -1.999995,-9.25 l -0.15625,-0.5 l 0.5,-0.125 c 1.800175,-0.449733 3.642849,-1.227171 5.062509,-2.09375 c 1.41965,-0.866579 2.37386,-1.851008 2.5625,-2.53125 c 0.0943,-0.340121 0.0807,-0.586841 -0.15625,-0.875 c -0.23697,-0.288159 -0.75641,-0.607955 -1.59375,-0.875 c -1.67469,-0.53409 -4.654208,-0.818754 -9.281259,-0.625 h -0.1875 l -0.125,-0.125 c -2.225357,-1.870615 -3.084287,-3.621309 -4.25,-5.4375 c -1.165713,-1.816191 -2.68089,-3.778296 -6.40625,-6.28125 c -2.796779,-1.879063 -5.916943,-3.306153 -9.28125,-3.84375 c -0.10371,-0.01657 -0.208311,-0.01636 -0.3125,-0.03125 c -0.123055,-0.0058 -0.273957,-0.01918 -0.375,-0.03125 z"
     id="path6522" />
  <path
     style="fill:#ffeeaa;fill-rule:nonzero;stroke:#000000;stroke-width:1px;stroke-linecap:butt;stroke-linejoin:miter;stroke-opacity:1"
     d="m 19.124376,59.353297 c -2.681077,1.49853 -3.196703,2.230355 -2.636605,3.666268 c 0.437829,1.12248 4.248811,0.522831 4.248811,0.522831 c 0,0 0.653628,-1.781881 0.653628,-1.781881 c 0,0 -0.652994,1.705728 -0.652994,1.705728 c 0,0 0.06959,1.501618 1.753999,1.629476 c 1.669615,0.126726 2.294786,-1.575087 2.294786,-1.575087 l 0.308711,-1.426613 l -0.28659,1.51313 c 0,0 1.501955,1.249552 3.535123,0.910066 c 2.077036,-0.346839 2.318478,-3.697186 0.470409,-5.067757 c -0.903119,-0.669799 -2.952534,-2.983104 -4.212352,-3.254614 c -1.318159,-0.284069 -2.821978,1.674504 -5.476926,3.158453 z"
     id="path6524" />
  <path
     style="display:inline;fill:#f7b9b9;fill-opacity:1;fill-rule:evenodd;stroke:none;stroke-width:1;stroke-miterlimit:4;stroke-opacity:1"
     d="m 13.604431,44.90741 c -0.5146,0.70913 -1.181984,1.239924 -1.84375,1.5 c -0.01349,0.0062 -0.01769,0.0253 -0.03125,0.03125 c -0.673436,0.254136 -1.284121,0.219829 -1.84375,-0.15625 c -0.559629,-0.376079 -0.625036,-3.380668 0.558035,-4.736607 c 1.202161,-1.377818 5.570812,-0.535217 3.160715,3.361607 z"
     id="path8347" />
  <path
     id="path6548"
     style="display:inline;fill:#000000;fill-opacity:0.0784314;fill-rule:evenodd;stroke:none;stroke-width:1;stroke-miterlimit:4;stroke-opacity:1"
     d="m 24.791931,7.00116 c -1.607441,0.04255 -3.27424,0.290182 -4.96875,0.78125 c -8.390402,2.427786 -11.546742,8.289684 -12.90625,16.84375 c -0.238969,3.672478 0.610046,8.320392 1.03125,12.6875 c -1.412457,11.358528 3.765119,11.040838 6.0625,7.875 c 0.334176,-0.460496 -0.970162,1.976688 -2.875,2.09375 c 2.048267,5.072066 3.701797,10.236995 7.3125,12.46875 c 0.216592,-0.12981 0.432739,-0.263856 0.6875,-0.40625 c 2.654948,-1.483949 4.15059,-3.440322 5.46875,-3.15625 c 1.259818,0.27151 3.315633,2.580203 4.21875,3.25 c 0.067,0.04969 0.125976,0.10159 0.1875,0.15625 c 5.727939,-1.523804 18.277556,-4.789301 23.125,-10.8125 c 3.612919,-4.489219 1.514625,-12.378861 -0.125,-17.90625 c 7.406639,-1.850375 15.094899,-8.779953 -3.53125,-8 c -4.310617,-3.623466 -3.139821,-6.678948 -10.6875,-11.75 c -3.791162,-2.547157 -8.177677,-4.252658 -13,-4.125 z m -0.5,2.03125 c -9.925827,-0.134223 -16.591029,10.08191 -15.2902,19.402648 c 1.443439,5.358454 -0.15105,11.135835 1.44645,16.316102 c 1.614768,1.303379 0.442133,-2.461858 3.362309,-0.867386 c 2.971667,1.622587 1.613892,3.298072 -0.08106,4.523636 c 1.398933,2.638789 2.395874,7.910199 5.25,8.6875 c 2.381165,-2.715053 6.679932,-4.208979 9.25,-0.90625 c 3.247995,2.665567 8.191567,-1.619163 12,-2.1875 c 2.962064,-1.077206 6.513964,-2.04713 8.950344,-4.342038 c 2.346856,-2.210584 3.649556,-5.696114 2.862156,-9.345462 c -0.329057,-3.722152 -1.539578,-7.257235 -2.5,-10.84375 c 2.562911,-0.695305 7.17891,-1.790326 8.09376,-3.9375 c -4.531101,-1.662812 -10.709211,1.178372 -13.25001,-4.1875 c -3.818994,-7.28104 -11.720665,-12.687336 -20.093749,-12.3125 z" />
  <rect
     style="color:#000000;display:inline;overflow:visible;visibility:visible;fill:#84a857;fill-opacity:1;fill-rule:evenodd;stroke:none;stroke-width:2;stroke-linecap:square;stroke-linejoin:round;stroke-miterlimit:4;stroke-dasharray:none;stroke-dashoffset:0;stroke-opacity:0.0588235;marker:none;marker-start:none;marker-mid:none;marker-end:none"
     id="rect8357"
     width="62.211555"
     height="62.211552"
     x="5"
     y="395" />
  <ellipse
     style="color:#000000;display:inline;overflow:visible;visibility:visible;fill:url(#radialGradient8371);fill-opacity:1;fill-rule:nonzero;stroke:none;stroke-width:2;stroke-linecap:square;stroke-linejoin:round;stroke-miterlimit:4;stroke-dasharray:none;stroke-dashoffset:0;stroke-opacity:1;marker:none;marker-start:none;marker-mid:none;marker-end:none"
     id="path8359"
     cx="35.930595"
     cy="448.91388"
     rx="25.380083"
     ry="7.0079331" />
  <path
     style="display:inline;fill:#ffd5d5;fill-opacity:1;fill-rule:evenodd;stroke:#000000;stroke-width:1;stroke-miterlimit:4;stroke-opacity:1"
     d="m 57.473087,423.18515 c 11.98398,14.02561 3.83301,14.60057 0.30014,11.49418 c -0.79446,5.71044 -1.70061,12.63327 -6.847295,15.22517 c -8.243097,4.15127 -25.837831,-1.46067 -28.982655,-1.73481 c -10.22489,-1.50543 -8.920411,-10.90527 -8.558779,-19.34864 c -5.6947607,0.77595 -12.95553266,-2.06838 1.214888,-9.24553 c 1.423591,-4.14999 2.564288,-8.7292 4.301458,-11.97364 c 4.777218,-7.22486 10.101082,-11.27134 18.74407,-10.0097 c 6.983341,1.01644 11.772703,5.30946 14.969228,10.49292 c 4.772885,7.73968 2.434015,10.01767 4.858945,15.10005 z"
     id="path8361" />
  <path
     style="display:inline;fill:#f7b9b9;fill-opacity:1;fill-rule:evenodd;stroke:none;stroke-width:1;stroke-miterlimit:4;stroke-opacity:1"
     d="m 37.581733,398.09751 c -4.987952,-0.72811 2.166126,6.3574 4.359602,8.91982 c 1.476809,1.72521 4.907906,8.51454 5.521601,11.14663 c 0.64672,2.77373 1.866733,11.93091 1.77414,14.5528 c -0.06286,1.77998 3.543001,7.70994 1.879046,10.19418 c -0.867525,1.29517 -3.79024,0.37741 -6.008774,0.91915 c -1.598404,0.3903 -4.793459,3.33305 -6.602178,3.40827 c -3.441483,0.14312 -7.696975,-1.10682 -10.427455,-2.72836 c -1.986246,-1.68364 -3.09976,-5.34402 -4.584269,-7.50819 c -1.457937,-2.12543 -2.709276,-3.67489 -4.955912,-4.32172 c -2.167585,-0.62406 -4.886209,4.72432 -4.501138,8.09641 c 0.04569,0.21457 0.0769,0.43221 0.132514,0.63892 c 0.867477,3.22423 2.879275,5.52806 7.829162,6.26608 c 0.01148,0.002 0.01962,10e-4 0.03113,0.003 c 0.896982,0.0815 2.51105,0.47967 4.714337,0.97559 c 2.217491,0.49912 4.972318,1.07627 7.86537,1.53259 c 5.786103,0.91266 12.179893,1.24045 16.092961,-0.73019 c 2.424148,-1.22081 3.858785,-3.46901 4.803855,-6.16862 c 0.94506,-2.69961 1.36407,-5.83553 1.76153,-8.69236 l 0.14096,-0.8974 l 0.70103,0.59437 c 0.80587,0.70859 1.89642,1.23161 2.85984,1.37857 c 0.96342,0.14696 1.71067,-0.0672 2.06029,-0.60461 c 0.34961,-0.53746 0.42145,-1.64539 -0.41208,-3.5492 c -0.83354,-1.90381 -2.5361,-4.52517 -5.5128,-8.00901 l -0.05684,-0.0677 l -0.02842,-0.0338 c -1.25187,-2.62378 -1.27118,-4.55807 -1.58091,-6.69383 c -0.30972,-2.13577 -0.8978,-4.55658 -3.253579,-8.3767 c -3.144145,-5.09852 -7.786003,-9.25215 -14.603015,-10.24438 z"
     id="path8363" />
  <path
     style="fill:#ffeeaa;fill-rule:nonzero;stroke:#000000;stroke-width:1px;stroke-linecap:butt;stroke-linejoin:miter;stroke-opacity:1"
     d="m 15.2991,444.69988 c -1.278578,-0.005 -4.090836,1.33845 -3.249103,2.31586 c 0.654733,0.76028 2.526733,1.378 4.231828,0.85974 c -0.03372,0.98489 1.837111,2.33116 3.067946,1.82491 c 0.908654,0.89397 2.346541,0.85224 3.149166,0.82533 c 2.336212,-0.0783 2.117673,-3.16812 1.052759,-3.85171 c -1.032115,-0.66254 -2.872235,0.49554 -3.572997,0.12875 c -1.151757,-0.60285 -3.396682,-2.09833 -4.679599,-2.10288 z"
     id="path8365" />
  <path
     style="fill:#ffeeaa;fill-rule:nonzero;stroke:#000000;stroke-width:1px;stroke-linecap:butt;stroke-linejoin:miter;stroke-opacity:1"
     d="m 50.256514,447.28402 c 2.943962,0.41347 4.431473,2.6269 4.566493,4.16228 c 0.10639,1.20975 -3.140549,1.0706 -3.140549,1.0706 c 0,0 -1.217917,-1.45053 -1.217917,-1.45053 c 0,0 1.204905,1.37549 1.204905,1.37549 c 0,0 -0.749463,1.45002 -1.549734,1.55205 c -0.735693,0.0938 -2.436273,-0.83975 -2.436273,-0.83975 l -1.040021,-1.43502 l 0.757667,1.58966 c 0,0 -2.660919,0.7091 -3.759094,-0.0588 c -1.098175,-0.76792 -2.195324,-1.80463 -0.594836,-3.45759 c 0.812105,-0.83873 2.612545,-0.59643 3.870151,-1.06778 c 1.220873,-0.45759 1.889041,-1.64428 3.339208,-1.4406 z"
     id="path8367" />
  <path
     id="path8375"
     style="display:inline;fill:#000000;fill-opacity:0.0784314;fill-rule:evenodd;stroke:none;stroke-width:1;stroke-miterlimit:4;stroke-opacity:1"
     d="m 34.541927,397.36991 c -6.874461,0.0281 -11.476184,3.897 -15.65625,10.21875 c -1.73717,3.24444 -2.857661,7.85002 -4.28125,12 c -14.17042066,7.17715 -6.9135107,9.9947 -1.21875,9.21875 c -0.248622,5.80482 -0.944204,12.07337 1.96875,15.90625 c 1.291385,0.0466 3.489946,1.49963 4.625,2.09375 c 0.700762,0.36679 2.530388,-0.78755 3.5625,-0.125 c 0.488086,0.31331 0.781995,1.13487 0.75,1.9375 c 3.926766,0.86696 11.347744,2.72681 17.9375,2.8125 c -0.02766,-0.47227 0.198654,-0.99103 0.8125,-1.625 c 0.812107,-0.83873 2.617394,-0.6224 3.875,-1.09375 c 1.220871,-0.45759 1.893583,-1.64118 3.34375,-1.4375 c 1.132849,0.1591 2.042553,0.57404 2.75,1.125 c 3.32226,-3.21046 4.07859,-8.89281 4.75,-13.71875 c 3.53287,3.10639 11.70273,2.5256 -0.28125,-11.5 c -2.42493,-5.08238 -0.10211,-7.35406 -4.875,-15.09375 c -3.196525,-5.18346 -7.985411,-9.48355 -14.96875,-10.5 c -1.080374,-0.15771 -2.111684,-0.22276 -3.09375,-0.21875 z m -1.0625,2.0625 c -10.244038,0.82184 -14.996989,11.99279 -16.96875,20.8125 c -1.806147,2.41048 -6.8292247,3.3213 -7.8437497,6.21875 c 2.8889787,1.56381 8.4723637,-1.96294 6.6759317,3.43658 c 0.190347,4.19652 -1.537095,10.32095 1.917818,13.25092 c 2.291621,2.19157 5.084788,0.72323 7.59375,2 c 2.69313,4.04832 9.130156,2.78973 13.526031,4.03953 c 3.07858,1.02694 4.528387,-2.92899 7.848969,-2.35203 c 1.686436,-1.95027 4.658582,-1.4557 6.53125,-1.3125 c 2.66113,-4.36322 2.65921,-9.73329 3.5,-14.65625 c 0.99629,0.51351 4.74089,4.79845 5.4375,2.71875 c -1.75936,-5.98668 -8.35447,-9.86323 -7.75,-16.6875 c -1.710293,-9.56387 -10.294718,-18.47454 -20.46875,-17.46875 z" />
  <rect
     style="color:#000000;display:inline;overflow:visible;visibility:visible;fill:#84a857;fill-opacity:1;fill-rule:evenodd;stroke:none;stroke-width:2;stroke-linecap:square;stroke-linejoin:round;stroke-miterlimit:4;stroke-dasharray:none;stroke-dashoffset:0;stroke-opacity:0.0588235;marker:none;marker-start:none;marker-mid:none;marker-end:none"
     id="rect9282"
     width="62.211555"
     height="62.211552"
     x="5"
     y="460" />
  <ellipse
     style="color:#000000;display:inline;overflow:visible;visibility:visible;fill:url(#radialGradient9296);fill-opacity:1;fill-rule:nonzero;stroke:none;stroke-width:2;stroke-linecap:square;stroke-linejoin:round;stroke-miterlimit:4;stroke-dasharray:none;stroke-dashoffset:0;stroke-opacity:1;marker:none;marker-start:none;marker-mid:none;marker-end:none"
     id="path9284"
     cx="35.930595"
     cy="513.91388"
     rx="25.380083"
     ry="7.0079331" />
  <path
     style="fill:#ffeeaa;fill-rule:nonzero;stroke:#000000;stroke-width:1px;stroke-linecap:butt;stroke-linejoin:miter;stroke-opacity:1"
     d="m 15.950252,507.29699 c -1.27339,-0.11516 -4.191307,0.97945 -3.437305,2.02603 c 0.586491,0.81408 2.39802,1.59147 4.141564,1.22269 c -0.118814,0.97828 1.628508,2.48138 2.898532,2.08353 c 0.827892,0.96925 2.263997,1.05209 3.06594,1.09473 c 2.334226,0.12412 2.383863,-2.973 1.382094,-3.74617 c -0.970916,-0.74936 -2.904341,0.24515 -3.570737,-0.1809 c -1.095273,-0.70025 -3.202377,-2.38437 -4.480088,-2.49991 z"
     id="path9290" />
  <path
     style="display:inline;fill:#ffd5d5;fill-opacity:1;fill-rule:evenodd;stroke:#000000;stroke-width:1;stroke-miterlimit:4;stroke-opacity:1"
     d="m 59.827697,489.51221 c 9.83256,15.54568 2.3767,16.12748 -0.69556,11.47704 c -1.2856,5.62028 -2.78737,12.43874 -8.139025,14.57558 c -8.571384,3.42244 -25.614533,-3.6909 -28.723841,-4.23613 c -10.056277,-2.38453 -7.854049,-12.43981 -6.76318,-20.82022 c -5.7405437,-0.79115 -14.2458247,-4.52094 1.921049,-8.30216 c 1.777345,-4.01125 3.309996,-8.47458 5.321388,-11.55654 c 5.384458,-6.78439 11.03849,-10.35503 19.539894,-8.35025 c 6.869197,1.61688 11.269127,6.30822 14.005145,11.74883 c 4.08528,8.12364 1.55807,10.19071 3.53413,15.46385 z"
     id="path9286" />
  <path
     style="display:inline;fill:#f7b9b9;fill-opacity:1;fill-rule:evenodd;stroke:none;stroke-width:1;stroke-miterlimit:4;stroke-opacity:1"
     d="m 41.385677,462.67616 c -3.319762,-0.0998 2.534193,6.8038 4.375,9.375 c 1.321987,1.84654 4.147608,8.91843 4.53125,11.59375 c 0.404288,2.81929 0.819115,12.05221 0.5,14.65625 c -0.216644,1.76787 2.872672,7.98156 1,10.3125 c -0.97634,1.21524 -3.805411,0.0585 -6.0625,0.40625 c -1.626184,0.25054 -5.066556,2.89407 -6.875,2.8125 c -3.440962,-0.1552 -7.576321,-1.77328 -10.15625,-3.625 c -1.833112,-1.84916 -2.770822,-4.87175 -4.0625,-7.15625 c -1.268556,-2.24358 -2.38026,-3.87995 -4.5625,-4.71875 c -1.890052,-0.72648 -4.516858,2.70646 -4.96875,5.875 c 0.02685,0.29307 0.05179,0.59096 0.09375,0.875 c 0.27577,1.86684 0.884082,3.52324 2,4.84375 c 1.110973,1.31465 2.740735,2.32792 5.15625,2.90625 c 0.01075,0.003 0.02047,-0.003 0.03125,0 c 0.886426,0.15864 2.472335,0.72136 4.625,1.40625 c 2.165986,0.68912 4.844785,1.5138 7.6875,2.21875 c 5.68543,1.40989 12.056088,2.28091 16.125,0.65625 c 2.520695,-1.00648 4.13739,-3.14229 5.3125,-5.75 c 1.17511,-2.60771 1.85684,-5.68828 2.5,-8.5 l 0.28125,-1.125 l 0.625,0.96875 c 0.71415,1.081 1.71391,1.84671 2.5625,2.15625 c 0.4243,0.15477 0.79405,0.21436 1.09375,0.15625 c 0.2997,-0.0581 0.53456,-0.19627 0.71875,-0.46875 c 0.36838,-0.54496 0.52156,-1.80785 -0.09375,-3.90625 c -0.61531,-2.0984 -1.96412,-5.0139 -4.40625,-8.875 l -0.03125,-0.0312 l -0.03125,-0.0625 c -1.02014,-2.72226 -0.87625,-4.65795 -1,-6.8125 c -0.12375,-2.15455 -0.4836,-4.5841 -2.5,-8.59375 c -2.691184,-5.35146 -6.981918,-9.89039 -13.6875,-11.46875 c -0.30664,-0.0723 -0.559933,-0.11835 -0.78125,-0.125 z"
     id="path9288" />
  <path
     style="fill:#ffeeaa;fill-rule:nonzero;stroke:#000000;stroke-width:1px;stroke-linecap:butt;stroke-linejoin:miter;stroke-opacity:1"
     d="m 50.552951,512.89626 c 2.897143,0.66665 4.544686,2.64335 4.546346,4.18466 c 0.0013,1.21442 -3.578544,1.15197 -3.578544,1.15197 c 0,0 -1.087837,-1.55047 -1.087837,-1.55047 c 0,0 1.081367,1.47459 1.081367,1.47459 c 0,0 -0.872121,1.37973 -1.678219,1.41213 c -0.74105,0.0298 -2.354473,-1.04741 -2.354473,-1.04741 l -0.91195,-1.51962 l 0.617275,1.64925 c 0,0 -2.265868,0.65477 -3.293478,-0.20529 c -1.027609,-0.86006 -2.477367,-2.16639 -0.739853,-3.67466 c 0.881633,-0.76531 2.207926,-0.99313 3.5016,-1.35389 c 1.255889,-0.35024 2.470662,-0.84966 3.897766,-0.52126 z"
     id="path9292" />
  <path
     id="path9309"
     style="display:inline;fill:#000000;fill-opacity:0.0784314;fill-rule:evenodd;stroke:none;stroke-width:1;stroke-miterlimit:4;stroke-opacity:1"
     d="m 37.791927,461.73866 c -6.113466,0.002 -10.65638,3.39392 -15.03125,8.90625 c -2.011392,3.08196 -3.566404,7.55126 -5.34375,11.5625 c -16.1668737,3.78122 -7.6467947,7.52136 -1.90625,8.3125 c -1.090869,8.38041 -3.306274,18.42798 6.75,20.8125 c 2.244714,0.39362 11.755138,4.1955 20.09375,5 c -0.04282,-0.4873 0.174454,-1.00864 0.8125,-1.5625 c 0.881635,-0.76534 2.206326,-0.98299 3.5,-1.34375 c 1.255889,-0.35021 2.447896,-0.85965 3.875,-0.53125 c 1.114832,0.25653 2.059065,0.70495 2.78125,1.25 c 3.50433,-2.93672 4.73716,-8.45519 5.8125,-13.15625 c 3.07226,4.65044 10.52006,4.07692 0.6875,-11.46875 c -1.97606,-5.27314 0.55403,-7.3451 -3.53125,-15.46875 c -2.736018,-5.44061 -7.130806,-10.13313 -14,-11.75 c -1.594013,-0.3759 -3.0892,-0.56306 -4.5,-0.5625 z m -0.90625,2.03125 c -10.175125,0.89913 -15.006153,11.62148 -18.03125,20.15625 c -2.530858,0.78989 -6.939028,1.26763 -8.1875,3.09375 c 3.027955,1.96665 9.122328,0.37836 6.537898,5.76231 c -0.964536,5.55397 -2.219088,14.92109 5.149602,16.48769 c 6.208481,1.40607 12.904464,4.83933 19,4.5 c 3.085988,-2.82904 8.330839,-3.40276 11.84375,-2.40625 c 3.17621,-4.3088 3.54502,-9.87821 4.9375,-14.96875 c 1.20397,0.85924 3.2169,5.58668 4.59375,4.6875 c -0.94872,-6.7173 -7.11651,-11.64683 -5.9375,-18.90625 c -1.26478,-9.80601 -9.413669,-19.09664 -19.90625,-18.40625 z" />
  <rect
     style="color:#000000;display:inline;overflow:visible;visibility:visible;fill:#84a857;fill-opacity:1;fill-rule:evenodd;stroke:none;stroke-width:2;stroke-linecap:square;stroke-linejoin:round;stroke-miterlimit:4;stroke-dasharray:none;stroke-dashoffset:0;stroke-opacity:0.0588235;marker:none;marker-start:none;marker-mid:none;marker-end:none"
     id="rect10206"
     width="62.211555"
     height="62.211552"
     x="5"
     y="525" />
  <ellipse
     style="color:#000000;display:inline;overflow:visible;visibility:visible;fill:url(#radialGradient10220);fill-opacity:1;fill-rule:nonzero;stroke:none;stroke-width:2;stroke-linecap:square;stroke-linejoin:round;stroke-miterlimit:4;stroke-dasharray:none;stroke-dashoffset:0;stroke-opacity:1;marker:none;marker-start:none;marker-mid:none;marker-end:none"
     id="path10208"
     cx="35.930595"
     cy="578.91388"
     rx="25.380083"
     ry="7.0079331" />
  <path
     style="fill:#ffeeaa;fill-rule:nonzero;stroke:#000000;stroke-width:1px;stroke-linecap:butt;stroke-linejoin:miter;stroke-opacity:1"
     d="m 18.334487,568.50528 c -1.259077,-0.2225 -7.289614,0.24246 -6.62688,1.34909 c 0.515498,0.86079 1.749669,2.29377 3.518166,2.07385 c -0.201172,0.96472 1.412687,2.98909 2.711823,2.70014 c 0.742902,1.03583 2.166846,1.61871 2.962304,1.72906 c 2.31535,0.3212 0.985396,-1.75046 2.32549,-3.61578 c 1.298488,-1.80741 -2.914668,-0.002 -3.542621,-0.48241 c -1.032088,-0.79042 -0.08493,-3.5307 -1.348282,-3.75395 z"
     id="path10210" />
  <path
     style="display:inline;fill:#ffd5d5;fill-opacity:1;fill-rule:evenodd;stroke:#000000;stroke-width:1;stroke-miterlimit:4;stroke-opacity:1"
     d="m 62.044307,556.01253 c 6.69607,15.96483 1.182,16.62789 -2.02142,12.44844 c -1.75659,5.49133 -3.47282,11.08682 -8.986105,12.76313 c -8.830254,2.68484 -25.210326,-5.84521 -28.262343,-6.6516 c -9.818423,-3.22696 -6.773196,-13.05982 -4.977073,-21.31786 c -10.4744327,-0.91694 -14.3172317,-7.33006 2.616704,-8.10981 c 1.41593,-4.35154 3.762722,-8.16409 6.027701,-11.06479 c 5.939253,-6.30441 12.127697,-9.38378 20.428959,-6.66679 c 6.707735,2.19237 10.694897,7.23921 12.960697,12.89183 c 3.38319,8.44021 0.69013,10.28601 2.21288,15.70745 z"
     id="path10212" />
  <path
     style="display:inline;fill:#f7b9b9;fill-opacity:1;fill-rule:evenodd;stroke:none;stroke-width:1;stroke-miterlimit:4;stroke-opacity:1"
     d="m 45.416927,527.71991 c -6.801242,-0.16293 2.578165,7.17086 4.09375,9.71875 c 1.160987,1.95181 3.375375,9.20806 3.53125,11.90625 c 0.164262,2.84342 -0.21167,12.08855 -0.75,14.65625 c -0.36547,1.74322 2.1882,8.21089 0.125,10.375 c -1.075676,1.12824 -4.141223,-1.17335 -6.419643,-1.01786 c -1.641552,0.11207 -4.941552,3.34592 -6.736607,3.11161 c -3.415485,-0.44579 -7.398521,-0.79821 -9.8125,-2.86161 c -1.670058,-1.99763 -2.343774,-5.08314 -3.4375,-7.46875 c -1.074149,-2.34285 -2.052818,-4.07329 -4.15625,-5.09375 c -1.821794,-0.8838 -4.7191,0.71143 -5.4375,3.83036 c 0.0019,0.29429 -0.01777,0.58842 0,0.875 c 6.13e-4,0.0102 -6.35e-4,0.021 0,0.0312 c 0.116806,1.88347 0.593578,3.55855 1.59375,4.96875 c 1.000172,1.4102 2.530481,2.56292 4.90625,3.34375 c 0.866696,0.22899 2.400098,0.91131 4.5,1.78125 c 2.099902,0.86994 4.695886,1.90078 7.46875,2.84375 c 5.545729,1.88595 11.808199,3.30576 16,2.03125 c 2.622316,-0.79731 4.32803,-2.49394 5.625,-4.71875 c 1.29697,-2.22481 2.15234,-4.97117 3.03125,-7.71875 l 0.28125,-0.90625 l 0.59375,0.75 c 0.75484,0.98483 1.65896,1.64584 2.375,1.875 c 0.35802,0.11458 0.666,0.13914 0.90625,0.0625 c 0.24025,-0.0766 0.44065,-0.24173 0.625,-0.5625 c 0.36871,-0.64154 0.55251,-1.97194 0.1875,-4.15625 c -0.36501,-2.18431 -1.27343,-5.18875 -2.9375,-9.15625 v -0.0312 v -0.0312 c -0.78612,-2.79882 -0.49651,-4.7177 -0.4375,-6.875 c 0.05901,-2.1573 -0.11138,-4.61534 -1.78125,-8.78125 c -2.19606,-5.47862 -5.969236,-10.34258 -12.34375,-12.53125 c -0.100744,-0.0266 -0.220037,-0.0323 -0.3125,-0.0625 c -0.402877,-0.22808 -0.85882,-0.13693 -1.28125,-0.1875 z"
     id="path10214" />
  <path
     style="fill:#ffeeaa;fill-rule:nonzero;stroke:#000000;stroke-width:1px;stroke-linecap:butt;stroke-linejoin:miter;stroke-opacity:1"
     d="m 51.707902,578.27532 c 2.830335,0.90942 4.936045,2.51337 4.807275,4.04929 c -0.10145,1.21017 -4.262974,1.41322 -4.262974,1.41322 c 0,0 -0.984298,-1.70009 -0.984298,-1.70009 c 0,0 0.984273,1.62394 0.984273,1.62394 c 0,0 -0.985749,1.30098 -1.791697,1.26505 c -0.740913,-0.033 -2.257394,-1.2429 -2.257394,-1.2429 l -1.569266,-2.03328 l 1.264679,2.13751 c 0,0 -2.313149,0.46068 -3.264293,-0.48325 c -0.951143,-0.94393 -2.316724,-2.43139 -0.457809,-3.78722 c 0.943233,-0.68796 2.031509,-2.19169 3.351071,-2.44168 c 1.281022,-0.24271 2.786238,0.75142 4.180433,1.19941 z"
     id="path10216" />
  <rect
     style="color:#000000;display:inline;overflow:visible;visibility:visible;fill:#84a857;fill-opacity:1;fill-rule:evenodd;stroke:none;stroke-width:2;stroke-linecap:square;stroke-linejoin:round;stroke-miterlimit:4;stroke-dasharray:none;stroke-dashoffset:0;stroke-opacity:0.0588235;marker:none;marker-start:none;marker-mid:none;marker-end:none"
     id="rect10233"
     width="62.211555"
     height="62.211552"
     x="5"
     y="590" />
  <ellipse
     style="color:#000000;display:inline;overflow:visible;visibility:visible;fill:url(#radialGradient10245);fill-opacity:1;fill-rule:nonzero;stroke:none;stroke-width:2;stroke-linecap:square;stroke-linejoin:round;stroke-miterlimit:4;stroke-dasharray:none;stroke-dashoffset:0;stroke-opacity:1;marker:none;marker-start:none;marker-mid:none;marker-end:none"
     id="path10235"
     cx="35.930595"
     cy="643.91388"
     rx="25.380083"
     ry="7.0079331" />
  <path
     style="fill:#ffeeaa;fill-rule:nonzero;stroke:#000000;stroke-width:1px;stroke-linecap:butt;stroke-linejoin:miter;stroke-opacity:1"
     d="m 17.435135,630.62673 c -1.42408,1.3182 -6.667216,0.0342 -6.064089,1.17441 c 0.469133,0.88691 0.37559,3.36545 2.15326,3.23961 c -0.25204,0.95269 0.716501,2.61335 2.02913,2.39369 c 0.686936,1.07377 0.57105,2.69571 3.31289,2.86584 c 2.830777,0.17565 2.237535,-2.0529 3.674645,-3.84454 c 1.392493,-1.73602 -2.910488,-0.15604 -3.51206,-0.66956 c -0.988727,-0.84403 -0.213367,-6.43721 -1.593776,-5.15945 z"
     id="path10237" />
  <path
     style="display:inline;fill:#ffd5d5;fill-opacity:1;fill-rule:evenodd;stroke:#000000;stroke-width:1;stroke-miterlimit:4;stroke-opacity:1"
     d="m 63.144497,622.04946 c 3.96518,16.29741 -0.68343,16.04217 -3.30361,13.66304 c -2.04527,5.39047 -3.43077,9.54781 -9.025177,10.92944 c -8.960186,2.21287 -24.864946,-7.17367 -27.869914,-8.14074 c -9.633516,-3.74301 -6.071224,-13.40058 -3.839777,-21.55177 c -12.0182247,-2.63172 -13.9084457,-9.32886 3.043014,-7.95966 c 1.644662,-4.27034 4.190298,-7.9531 6.605889,-10.72963 c 6.265166,-5.98064 12.608176,-8.72756 20.753704,-5.57425 c 6.582061,2.54494 9.224591,7.61751 11.187501,13.38232 c 2.93092,8.60772 1.21521,10.4867 2.44837,15.98125 z"
     id="path10239" />
  <path
     style="display:inline;fill:#f7b9b9;fill-opacity:1;fill-rule:evenodd;stroke:none;stroke-width:1;stroke-miterlimit:4;stroke-opacity:1"
     d="m 46.635677,592.82616 c -5.976281,0.11685 2.426537,7.28938 3.71875,9.75 c 1.055866,2.01061 2.89365,9.39109 2.90625,12.09375 c 0.01327,2.84813 -0.857532,12.05821 -1.53125,14.59375 c -0.457383,1.72137 2.48753,7.54208 0.3125,9.59375 c -1.133983,1.06959 -2.997791,-1.22196 -5.28125,-1.1875 c -1.645188,0.0249 -5.657393,3.9229 -7.4375,3.59375 c -3.387042,-0.62627 -7.35507,-1.18651 -9.65625,-3.375 c -1.561789,-2.08337 -2.06555,-4.43476 -3.03125,-6.875 c -0.948419,-2.39653 -1.859883,-4.18195 -3.90625,-5.3125 c -1.766837,-0.97606 -4.73198,-0.30192 -5.625,2.75 c -0.0028,0.01 0.0028,0.0216 0,0.0312 c -0.01366,0.29396 -0.0338,0.58788 -0.03125,0.875 c 6.7e-5,0.0103 -9.2e-5,0.021 0,0.0312 c 0.01678,1.88702 0.388505,3.57 1.3125,5.03125 c 0.918081,1.4519 2.413436,2.68967 4.71875,3.59375 c 0.01485,0.006 0.01633,0.0254 0.03125,0.0312 c 0.857342,0.2805 2.341702,1.02832 4.375,2 c 2.050824,0.98006 4.593533,2.16133 7.3125,3.25 c 5.437934,2.17733 11.621522,3.92546 15.875,2.875 c 2.693202,-0.66513 4.31485,-1.9732 5.5625,-3.78125 c 1.24765,-1.80805 2.10053,-4.14367 3.125,-6.84375 l 0.25,-0.6875 l 0.53125,0.5 c 0.60386,0.54831 1.34901,0.94892 1.9375,1.03125 c 0.58849,0.0823 1.02334,-0.0517 1.4375,-0.75 c 0.82832,-1.39658 1.09712,-5.36309 -0.875,-13.46875 c -0.6301,-2.8075 -0.53462,-4.7342 -0.625,-6.9375 c -0.09038,-2.2033 -0.36021,-4.73484 -1.8125,-9 c -1.91788,-5.63257 -4.42307,-10.45387 -10.625,-12.96875 c -0.09919,-0.0319 -0.190519,-0.0587 -0.28125,-0.0937 c -0.09755,-0.0623 -0.207939,-0.0951 -0.3125,-0.125 c -0.313684,-0.0897 -0.654384,-0.0703 -0.96875,-0.125 c -0.532452,-0.0584 -1.007831,-0.10154 -1.40625,-0.0937 z"
     id="path10241" />
  <path
     style="fill:#ffeeaa;fill-rule:nonzero;stroke:#000000;stroke-width:1px;stroke-linecap:butt;stroke-linejoin:miter;stroke-opacity:1"
     d="m 51.642233,643.73289 c 1.23754,0.9362 5.063704,3.30726 4.853674,4.83419 c -0.16547,1.20309 -4.599766,0.6495 -4.599766,0.6495 c 0,0 -0.671802,-1.81302 -0.671802,-1.81302 c 0,0 0.675814,1.73697 0.675814,1.73697 c 0,0 -0.964055,1.60403 -1.766965,1.52542 c -0.738119,-0.0723 -2.277605,-1.71799 -2.277605,-1.71799 l -1.175147,-2.14519 l 0.865462,2.23313 c 0,0 -2.691464,1.31952 -3.591222,0.32649 c -0.899757,-0.99303 -0.838016,-3.50039 0.100781,-4.78831 c 0.908811,-1.24678 1.877,-2.79518 3.207961,-2.97485 c 1.292088,-0.17445 3.09962,1.16595 4.378815,2.13366 z"
     id="path10243" />
  <path
     id="path11194"
     style="display:inline;fill:#000000;fill-opacity:0.0784314;fill-rule:evenodd;stroke:none;stroke-width:1;stroke-miterlimit:4;stroke-opacity:1"
     d="m 41.010677,526.40741 c -5.520997,0.0154 -10.108058,2.95921 -14.5625,7.6875 c -2.264979,2.9007 -4.615324,6.71095 -6.03125,11.0625 c -16.9339357,0.77975 -13.0994337,7.17681 -2.625,8.09375 c -1.796123,8.25804 -4.849674,18.08553 4.96875,21.3125 c 2.289013,0.60479 12.087278,5.57079 20.5625,6.875 c -0.170218,-0.62344 -0.02696,-1.27118 0.84375,-1.90625 c 0.943236,-0.68795 2.055438,-2.21876 3.375,-2.46875 c 1.281022,-0.24273 2.762055,0.77076 4.15625,1.21875 c 0.9802,0.31495 1.881333,0.70638 2.625,1.15625 c 3.01979,-2.52076 4.34261,-6.76447 5.6875,-10.96875 c 3.20342,4.17945 8.72732,3.4961 2.03125,-12.46875 c -1.52275,-5.42144 1.16444,-7.24726 -2.21875,-15.6875 c -2.2658,-5.65262 -6.229766,-10.7139 -12.9375,-12.90625 c -2.075316,-0.67925 -4.034668,-1.00512 -5.875,-1 z m -0.78125,2.03125 c -9.542724,1.00822 -15.780022,10.10833 -18.34375,18.625 c -3.352336,0.41293 -8.57436,0.07 -10.71875,2.1875 c 2.707481,1.84107 5.9707,1.91022 9.09375,2.21875 c -0.92194,6.31716 -5.56654,15.70008 1.125,20.34375 c 6.761548,2.39158 13.958519,6.63451 20.71875,6.875 c 2.371512,-2.90696 6.286263,-5.05727 9.8125,-2.4375 c 3.63526,2.34136 4.28436,-4.09045 5.50373,-6.29243 c 0.90454,-5.18492 2.21686,-6.03342 5.15252,-1.73882 c 1.65106,0.55159 -0.05289,-4.25396 -0.15625,-5.34375 c -2.52055,-5.22495 -3.26593,-10.76254 -2.9375,-16.53125 c -1.36502,-9.3628 -8.975927,-18.52949 -19.25,-17.90625 z" />
  <path
     id="path11196"
     style="display:inline;fill:#000000;fill-opacity:0.0784314;fill-rule:evenodd;stroke:none;stroke-width:1;stroke-miterlimit:4;stroke-opacity:1"
     d="m 42.354427,591.38866 c -4.941324,0.18833 -9.28645,2.76332 -13.59375,6.875 c -2.415591,2.77653 -4.980341,6.44838 -6.625,10.71875 c -16.9514597,-1.3692 -15.0494777,5.33701 -3.03125,7.96875 c -2.231447,8.15119 -5.789767,17.81948 3.84375,21.5625 c 2.279106,0.73347 11.975307,6.28285 20.4375,7.96875 c 0.09342,-0.71477 0.28833,-1.40151 0.65625,-1.90625 c 0.908814,-1.24678 1.887789,-2.78908 3.21875,-2.96875 c 1.29209,-0.17445 3.095805,1.15729 4.375,2.125 c 0.482709,0.36517 1.372755,0.95847 2.25,1.625 c 3.13598,-1.96726 4.36586,-5.43171 5.96875,-9.65625 c 2.62018,2.37913 7.24643,2.64113 3.28125,-13.65625 c -1.23316,-5.49455 0.49342,-7.36105 -2.4375,-15.96875 c -1.96291,-5.76481 -4.60544,-10.83007 -11.1875,-13.375 c -2.545478,-0.98541 -4.910194,-1.39811 -7.15625,-1.3125 z m 4.03125,55.4375 l 0.03125,0.0937 c 0.01025,7.6e-4 0.02101,-7.5e-4 0.03125,0 z m -4.8125,-53.375 c -9.062801,1.34181 -15.19297,9.54697 -18.125,17.625 c -3.503334,-0.033 -8.754307,-1.04247 -11.375,0.8125 c 2.75149,2.17835 6.177511,2.81185 9.53125,3.59375 c -1.39889,6.33558 -6.644362,16.67987 1.0625,20.75 c 6.455931,2.40552 12.956066,6.89512 19.5,7.53125 c 1.606164,-3.83883 6.446428,-5.62451 9.59375,-2.40625 c 2.52622,3.62949 4.18921,-1.44319 5.09375,-3.46875 c 1.14131,-4.34433 2.12581,-5.44364 4.51339,-4.99554 c 1.352,-7.41424 -1.63568,-12.70832 -1.04464,-20.22321 c -1.37053,-10.02461 -7.334374,-20.33581 -18.75,-19.21875 z" />
  <rect
     style="color:#000000;display:inline;overflow:visible;visibility:visible;fill:#84a857;fill-opacity:1;fill-rule:evenodd;stroke:none;stroke-width:2;stroke-linecap:square;stroke-linejoin:round;stroke-miterlimit:4;stroke-dasharray:none;stroke-dashoffset:0;stroke-opacity:0.0588235;marker:none;marker-start:none;marker-mid:none;marker-end:none"
     id="rect12103"
     width="62.211555"
     height="62.211552"
     x="5"
     y="655" />
  <ellipse
     style="color:#000000;display:inline;overflow:visible;visibility:visible;fill:url(#radialGradient12117);fill-opacity:1;fill-rule:nonzero;stroke:none;stroke-width:2;stroke-linecap:square;stroke-linejoin:round;stroke-miterlimit:4;stroke-dasharray:none;stroke-dashoffset:0;stroke-opacity:1;marker:none;marker-start:none;marker-mid:none;marker-end:none"
     id="path12105"
     cx="35.930595"
     cy="708.91388"
     rx="25.380083"
     ry="7.0079331" />
  <path
     style="fill:#ffeeaa;fill-rule:nonzero;stroke:#000000;stroke-width:1px;stroke-linecap:butt;stroke-linejoin:miter;stroke-opacity:1"
     d="m 20.19243,694.30651 c -1.723274,0.89217 -6.436391,-1.73949 -6.158089,-0.47997 c 0.216471,0.97971 -0.532618,3.34419 1.214536,3.69547 c -0.49624,0.85141 -0.004,2.70979 1.319759,2.84699 c 0.376757,1.21775 0.10171,2.17016 2.699658,3.06308 c 2.682215,0.92188 2.434917,-0.80383 4.296614,-2.14894 c 1.803903,-1.30337 -2.764271,-0.92417 -3.207678,-1.57914 c -0.728764,-1.07651 1.505624,-6.2623 -0.1648,-5.39749 z"
     id="path12107" />
  <path
     style="display:inline;fill:#ffd5d5;fill-opacity:1;fill-rule:evenodd;stroke:#000000;stroke-width:1;stroke-miterlimit:4;stroke-opacity:1"
     d="m 64.160747,688.03077 c 1.79612,13.87065 -1.13978,15.63776 -4.09621,13.94623 c -2.28676,5.29254 -3.68014,8.9366 -9.331261,10.06402 c -9.051028,1.80572 -24.515384,-8.28994 -27.473583,-9.39181 c -9.454537,-4.1745 -5.45948,-13.66123 -2.861978,-21.70326 c -11.0834557,-3.97568 -12.3119737,-11.19783 3.399585,-7.81403 c 1.835949,-4.19165 4.545401,-7.75562 7.08399,-10.42016 c 6.529018,-5.69142 12.989676,-8.14891 20.984392,-4.63074 c 6.460335,2.83977 8.870945,8.02657 10.571355,13.87419 c 2.53896,8.73137 0.7401,10.5309 1.72371,16.07556 z"
     id="path12109" />
  <path
     style="display:inline;fill:#f7b9b9;fill-opacity:1;fill-rule:evenodd;stroke:none;stroke-width:1;stroke-miterlimit:4;stroke-opacity:1"
     d="m 48.979427,658.08866 c -7.427551,-0.15335 1.351547,6.76475 2.53125,9.28125 c 0.963934,2.05624 2.45329,9.51828 2.34375,12.21875 c -0.11544,2.84581 -1.399895,11.99749 -2.1875,14.5 c -0.534701,1.69894 0.317868,4.79744 -0.9375,6.875 c -0.806172,1.33416 -1.373566,2.00626 -3.65625,1.9375 c -1.64463,-0.0495 -5.799085,3.65925 -7.5625,3.25 c -3.355284,-0.77867 -7.300064,-1.52226 -9.5,-3.8125 c -1.466049,-2.15184 -2.614305,-2.76862 -3.46875,-5.25 c -0.839159,-2.43697 -1.69431,-4.24688 -3.6875,-5.46875 c -1.70693,-1.0463 -3.896532,-2.25966 -4.9375,0.65625 c -0.0032,0.0322 -0.02826,0.0616 -0.03125,0.0937 c -0.02828,0.30381 -0.05172,0.60949 -0.0625,0.90625 c -0.06851,1.88585 0.20548,3.59224 1.0625,5.09375 c 0.85702,1.50151 2.274782,2.8024 4.5625,3.8125 c 0.840057,0.3129 2.308058,1.14702 4.3125,2.21875 c 2.004442,1.07173 4.489255,2.38333 7.15625,3.59375 c 5.33399,2.42085 11.422151,4.4197 15.71875,3.5625 c 2.73193,-0.54503 4.34598,-1.64642 5.625,-3.28125 c 1.27902,-1.63483 2.19846,-3.84933 3.34375,-6.5 l 0.21875,-0.5 l 0.5,0.28125 c 0.67557,0.38653 1.29071,0.51319 1.78125,0.40625 c 0.49054,-0.10694 0.94654,-0.45618 1.34375,-1.34375 c 0.79291,-1.77177 1.10569,-5.62638 0.21875,-12.5 c -0.0017,-0.0131 0.0017,-0.0181 0,-0.0312 c -0.49462,-2.81353 -0.29048,-4.7103 -0.28125,-6.90625 c 0.0093,-2.20514 -0.17943,-4.76732 -1.4375,-9.09375 c -1.66109,-5.71239 -3.92132,-10.64497 -10,-13.4375 c -0.02278,-0.008 -0.04046,-0.0232 -0.0625,-0.0312 c -0.07241,-0.0265 -0.150476,-0.0325 -0.21875,-0.0625 c -0.09464,-0.0666 -0.209397,-0.0904 -0.3125,-0.125 c -0.309307,-0.10378 -0.657175,-0.11868 -0.96875,-0.1875 c -0.529269,-0.0823 -1.007886,-0.14603 -1.40625,-0.15625 z"
     id="path12111" />
  <path
     style="fill:#ffeeaa;fill-rule:nonzero;stroke:#000000;stroke-width:1px;stroke-linecap:butt;stroke-linejoin:miter;stroke-opacity:1"
     d="m 51.690408,709.17229 c 1.193971,0.99116 4.909089,3.5327 4.630269,5.04858 c -0.21967,1.19438 -4.53513,0.88741 -4.53513,0.88741 c 0,0 -0.0985,-1.74381 -0.0985,-1.74381 c 0,0 0.0613,1.7573 0.0613,1.7573 c 0,0 -1.080196,1.02312 -1.878734,0.9083 c -0.734099,-0.10555 -2.286932,-1.19415 -2.286932,-1.19415 l -0.603323,-2.31133 l 0.28998,2.38519 c 0,0 -2.659055,0.57155 -3.513021,-0.46113 c -0.853965,-1.03267 -0.678985,-3.53468 0.317052,-4.77886 c 0.964221,-1.20444 2.00139,-2.70751 3.339111,-2.82685 c 1.298651,-0.11589 3.043767,1.30482 4.277926,2.32935 z"
     id="path12113" />
  <path
     id="path12133"
     style="display:inline;fill:#000000;fill-opacity:0.0784314;fill-rule:evenodd;stroke:none;stroke-width:1;stroke-miterlimit:4;stroke-opacity:1"
     d="m 44.760677,656.46366 c -4.944786,-0.0351 -9.3863,2.33714 -13.875,6.25 c -2.538589,2.66454 -5.257799,6.21459 -7.09375,10.40625 c -15.7115587,-3.3838 -14.4897067,3.83681 -3.40625,7.8125 c -2.597502,8.04203 -6.579537,17.54425 2.875,21.71875 c 2.243913,0.83581 11.684356,6.84041 20.0625,8.90625 c 0.125693,-0.70949 0.359818,-1.38761 0.75,-1.875 c 0.964224,-1.20443 2.006029,-2.72441 3.34375,-2.84375 c 1.298654,-0.11588 3.047091,1.31922 4.28125,2.34375 c 0.47465,0.39403 1.356544,1.02778 2.21875,1.75 c 3.12945,-1.7122 4.37557,-4.84752 6.15625,-8.96875 c 2.95643,1.69153 5.88987,-0.0669 4.09375,-13.9375 c -0.98361,-5.54466 0.82021,-7.33116 -1.71875,-16.0625 c -1.70041,-5.84762 -4.13341,-11.03524 -10.59375,-13.875 c -2.498349,-1.09943 -4.84612,-1.60902 -7.09375,-1.625 z m -0.78125,2.03125 c -9.121029,0.84986 -15.785274,8.85694 -19,16.90625 c -3.415207,-0.53418 -7.64774,-1.93713 -10.84375,-0.6875 c 1.774498,3.3061 7.564557,3.39632 8.438692,5.98156 c -1.58888,5.84129 -6.6068,15.00052 0.123808,19.42469 c 6.379959,2.82161 12.884821,7.66423 19.5625,8.6875 c 1.6816,-3.87404 6.706564,-5.35922 9.6875,-2 c 2.73013,4.07933 4.62421,-2.18923 5.625,-4.15625 c 0.59768,-3.51015 0.63657,-4.10477 2.94196,-5.73215 c 0.2898,-2.93922 0.09023,-10.31288 1.76157,-10.1258 c 0.1129,-2.8765 -0.94112,-3.96211 -0.51603,-8.1733 c -0.65986,-8.65704 -5.39404,-19.28993 -15.4375,-20.0625 c -0.778844,-0.0587 -1.562314,-0.13988 -2.34375,-0.0625 z" />
  <path
     style="display:none;fill:#fffcbf;fill-opacity:1;fill-rule:nonzero;stroke:#e9ddaf;stroke-width:4;stroke-linejoin:bevel;stroke-miterlimit:4;stroke-dasharray:none;stroke-opacity:1;marker-start:none"
     d="m 346.8858,357.64673 c 44.35781,-13.25454 91.34913,-20.375 140,-20.375 c 48.6487,0 95.64135,7.1203 140,20.375"
     id="path2956" />
</svg>
