<?xml version="1.0" encoding="UTF-8"?>
<svg xmlns="http://www.w3.org/2000/svg" width="100" height="100" viewBox="0 0 320 320">
	<style>
:root { --stroke: hsla(0, 0%, 0%, 0.5); }
#sparkIn { fill: yellow; }
#sparkOut { fill: red; stroke-width: 5; stroke: var(--stroke); }
#fuseIn { stroke-width: 8; stroke-linecap: square; stroke: #FC8; }
#fuseOut { stroke-width: 18; stroke-linecap: square; stroke: var(--stroke); }
#body { fill: url(#rgSurface); stroke-width: 5; stroke: var(--stroke); }
#cap { fill:url(#lgSurface); stroke-width: 5; stroke: var(--stroke); }
#shadowTarget { filter: url(#shadow); }
	</style>
	<defs>
		<!-- 接続部の円筒形のための陰。-->
		<linearGradient id="lgSurface">
			<stop offset="0.0" stop-color="#CCC"/>
			<stop offset="0.5" stop-color="#666"/>
			<stop offset="1.0" stop-color="#333"/>
		</linearGradient>
		<!-- 本体の球のための陰。-->
		<radialGradient id="rgSurface" cy="0.25" r="0.5" fy="0.2"
			gradientTransform="rotate(-45, 0.5, 0.5) scale(1, 0.8)">
			<stop offset="0.0" stop-color="#CCC"/>
			<stop offset="0.5" stop-color="#666"/>
			<stop offset="1.0" stop-color="#333"/>
		</radialGradient>
		<!-- 影の適用。-->
		<filter id="shadow" x="-20%" y="-20%" width="150%" height="150%">
			<feDropShadow dx="10" dy="10" stdDeviation="5" flood-opacity="0.25"/>
		</filter>
	</defs>
	<!-- 火花 -->
	<g transform="translate(244, 46) rotate(45)">
		<path id="sparkOut" d="M50,20 l 30,-10 -20,-14 10,-20 -20,0 -20,-30 -6,26 -20,-10 6,26 -20,10 20,10"/>
		<path id="sparkIn" d="M40,12 l 20,-4 -14,-10 10,-16 -16,10 -6,-20 -4,16 -14,-10 6,16 -10,4 12,10"/>
	</g>
	<!-- 導火線 -->
	<g transform="translate(224, 90) rotate(45)">
		<path id="fuseOut" d="M0,0 q0,-20 10,-34"/>
		<path id="fuseIn" d="M0,0 q0,-20 10,-34"/>
	</g>
	<g id="shadowTarget">
		<!-- 接続部 -->
		<g transform="translate(224, 90) rotate(45)">
			<rect id="cap" x="-30" width="60" height="40"/>
		</g>
		<!-- 本体 -->
		<g transform="translate(124, 190)">
			<circle id="body" r="110"/>
		</g>
	</g>
</svg>
