<?xml version="1.0" encoding="UTF-8"?>
<svg xmlns="http://www.w3.org/2000/svg" width="100" height="100" viewBox="0 0 160 160">
	<style>
.stroke, .withStroke { stroke-width: 3; stroke-opacity: 0.4; stroke: black; }
.stroke { fill: none; }
.metal { fill: #CCC; filter: url(#metal); }
#fork, #knife, #nupkin { filter:url(#dropShadow); }
#forkFill { fill: url(#forkCurveGrad); }
#knifeEdge { fill: #EEE; filter:url(#weakBlur); }
#nupkinOver { fill: url(#weave); }
#nupkinBottom { fill: hsl(0, 100%, 98%); }
	</style>
	<defs>
		<!-- フォークのうねり。-->
		<linearGradient id="forkCurveGrad" gradientUnits="objectBoundingBox" x1="0" y1="0" x2="0" y2="1">
			<stop offset="0.00" stop-color="#DDD"/>
			<stop offset="0.25" stop-color="#CCC"/>
			<stop offset="0.30" stop-color="#BBB"/>
			<stop offset="0.35" stop-color="#CCC"/>
			<stop offset="0.75" stop-color="#EEE"/>
			<stop offset="0.80" stop-color="#F8F8F8"/>
			<stop offset="0.85" stop-color="#EEE"/>
			<stop offset="1.00" stop-color="#DDD"/>
		</linearGradient>
		<!-- ナプキンの模様。-->
		<linearGradient id="weave" gradientUnits="objectBoundingBox" x1="0" y1="1" x2="0" y2="0">
			<stop offset="0.00" stop-color="hsl(0, 100%, 98%)"/>
			<stop offset="0.80" stop-color="hsl(0, 100%, 98%)"/>
			<stop offset="0.80" stop-color="hsl(0, 100%, 95%)"/>
			<stop offset="1.00" stop-color="hsl(0, 100%, 95%)"/>
		</linearGradient>
		<!-- 金属の隆起による光沢。-->
		<filter id="metal">
			<feGaussianBlur result="bump" stdDeviation="2"/>
			<feSpecularLighting result="lightL" in="bump" specularConstant="6" specularExponent="96" kernelUnitLength="1">
				<feDistantLight azimuth="-180" elevation="55"/>
			</feSpecularLighting>
			<feSpecularLighting result="lightR" in="bump" specularConstant="6" specularExponent="96" kernelUnitLength="1">
				<feDistantLight azimuth="0" elevation="55"/>
			</feSpecularLighting>
            <feColorMatrix result="shadeR" in="lightR" values="-1,0,0,0,0 0,-1,0,0,0 0,0,-1,0,0 0,0,0,0.4,0"/>
			<feComposite operator="over" result="lights" in="lightL" in2="shadeR"/>
			<feComposite operator="in" result="clipedLights" in2="SourceGraphic"/>
			<feComposite operator="over" in="clipedLights" in2="SourceGraphic"/>
		</filter>
		<!-- 弱いぼかし -->
		<filter id="weakBlur">
			<feMorphology type="erode" radius="2"/>
			<feGaussianBlur stdDeviation="2"/>
			<feComposite operator="in" in2="SourceGraphic"/>
		</filter>
		<!-- 影。-->
		<filter id="dropShadow" filterUnits="objectBoundingBox" x="-0.25" y="-0.25" width="1.5" height="1.5">
			<feGaussianBlur in="SourceAlpha" stdDeviation="4, 2"/>
			<feColorMatrix values="0,0,0,0,0 0,0,0,0,0 0,0,0,0,0 0,0,0,0.4,0"/>
			<feOffset result="shadow" dx="3"/>
			<feComposite operator="over" in="SourceGraphic" in2="shadow"/>
		</filter>
		<!-- フォーク輪郭 -->
		<path id="forkOutline" 
			d="M 8,70 C 10,68 26,68 26,50 C 26,30 22,8 19,8 S 17,30 17,40 A 3,3 0,0,1 11,40
			C 11,30 10,8 7,8 S 3,30 3,40 A 3,3 0,0,1 -3,40 C -3,30 -4,8 -7,8 S -11,30,-11,40
			A 3,3 0,0,1 -17,40 C -17,30 -17,8 -19,8 S -26,30 -26,50 C -26,68 -10,68 -8,70
			S -6,85 -6,90 S -10,145 -10,150 A 10,5 0,0,0 10,150 C 10,145 6,95 6,90 S 6,72 8,70 Z"/>
		<!-- ナイフ輪郭 -->
		<path id="knifeOutline"
			d="M 0,5 C -22,5 -22,70 -18,76 S -6,85 -6,90 S -6,100 -6,105 S -10,145 -10,150
			A 10,5 0,0,0 10,150 C 10,145 8,110 8,105 S 8,95,8,90 V 11 A 8,6 0,0,0,0,5 Z"/>
	</defs>
	<!-- ナプキン -->
	<g id="nupkin" transform="scale(0.8) translate(16,16) rotate(5,80,80)">
		<path id="nupkinBottom" class="withStroke" d="M145,175 Q151,175,152,165 T160,10 H35 Q28,155,27,165 T20,175"/>
		<path id="nupkinOver" class="withStroke" d="M145,160 L145,-5 15,-5 V165 Q15,175,20,175 H145"/>
	</g>
	<!-- フォーク -->
	<g id="fork" transform="translate(55,15) rotate(5,0,64) scale(0.8)">
		<use id="forkFill" class="metal" href="#forkOutline"/>
		<use id="forkStroke" class="stroke" href="#forkOutline"/>
	</g>
	<!-- ナイフ -->
	<g id="knife" transform="translate(102,20) rotate(10,0,64) scale(0.8)">
		<use id="knifeFill" class="metal" href="#knifeOutline"/>
		<path id="knifeEdge" 
			d="M 0,5 C -22,5 -22,70 -18,76 S -10,83 -7,83
			S 0,80 1,75 S 4,20 4,15 S 5,5 0,5 Z"/>
		<use id="knifeStroke" class="stroke" href="#knifeOutline"/>
	</g>
</svg>
