<?xml version="1.0" encoding="UTF-8"?>
<svg xmlns="http://www.w3.org/2000/svg" width="100" height="100" viewBox="0 0 160 160">
	<style>
#target { filter: url(#shadow); }
g#top circle#renze { fill: url(#rgRenze); }
g#joint rect.center { fill: url(#lgJointShade); }
.pCover { fill: hsl(0, 0%, 75%); }
.pGlip { fill: url(#lgGlipShade); }
.pEdge { stroke: black; stroke-opacity: 0.5; stroke-width: 2.5; }
.renzeShade { fill: hsl(240, 100%, 20%); fill-opacity: 0.05; }
	</style>
	<defs>
		<!-- レンズの輪郭。-->
		<clipPath id="clipRenze">
			<use href="#renze"/>
		</clipPath>
		<!-- レンズの光沢。-->
		<radialGradient id="rgRenze"
			gradientTransform="translate(0.3,0.35) rotate(30) scale(1,1.2) translate(-0.5, -0.5)">
			<stop offset="0.0" stop-color="hsl(180, 20%, 70%)"/>
			<stop offset="0.5" stop-color="hsl(180, 20%, 50%)"/>
			<stop offset="1.0" stop-color="hsl(180, 20%, 40%)"/>
		</radialGradient>
		<!-- グリップの陰。-->
		<linearGradient id="lgGlipShade" x1="0" y1="0" x2="0" y2="1">
			<stop offset="0.00" stop-color="hsl(150, 50%, 38%)"/>
			<stop offset="0.15" stop-color="hsl(150, 50%, 38%)"/>
			<stop offset="0.15" stop-color="hsl(150, 50%, 45%)"/>
			<stop offset="0.30" stop-color="hsl(150, 50%, 45%)"/>
			<stop offset="0.30" stop-color="hsl(150, 50%, 38%)"/>
			<stop offset="0.60" stop-color="hsl(150, 50%, 38%)"/>
			<stop offset="0.60" stop-color="hsl(150, 50%, 32%)"/>
			<stop offset="1.00" stop-color="hsl(150, 50%, 32%)"/>
		</linearGradient>
		<!-- 接続部の陰。-->
		<linearGradient id="lgJointShade" x1="0" y1="0" x2="0" y2="1">
			<stop offset="0.00" stop-color="hsl(0, 0%, 70%)"/>
			<stop offset="0.25" stop-color="hsl(0, 0%, 70%)"/>
			<stop offset="0.25" stop-color="hsl(0, 0%, 55%)"/>
			<stop offset="0.60" stop-color="hsl(0, 0%, 55%)"/>
			<stop offset="0.60" stop-color="hsl(0, 0%, 45%)"/>
			<stop offset="1.00" stop-color="hsl(0, 0%, 45%)"/>
		</linearGradient>
		<!-- 影の適用。-->
		<filter id="shadow" x="-20%" y="-20%" width="150%" height="150%">
			<feDropShadow dx="6" dy="1" stdDeviation="5" flood-opacity="0.5"/>
		</filter>
	</defs>
	<g id="target" transform="rotate(45, 80, 80), translate(0, 80)">
		<!-- レンズとグリップの接続箇所。-->
		<g id="joint" transform="translate(80, 0)">
			<rect class="pEdge center" x="0" y="-5" width="20" height="10"/>
			<rect class="pEdge pCover" x="0" y="-8" width="10" height="16"/>
			<rect class="pEdge pGlip" x="17" y="-8" width="20" height="16"/>
		</g>
		<!-- レンズ。-->
		<g id="top" transform="translate(40, 0)">
			<circle id="renze" r="33"/>
			<path class="renzeShade" clip-path="url(#clipRenze)"
				d="M 40,-44 H 10 Q 30,10,-30,44 H 40"/>
			<path class="renzeShade" clip-path="url(#clipRenze)"
				d="M 40,-44 H 25 Q 40,10,-20,44 H 40"/>
			<path class="pEdge pCover"
				d="M -44,0 A 44,44,0,0,0,44,0 A 44,44,0,0,0,-44,0 Z
				M -33,0 A 33,33,0,0,1,33,0 A 33,33,0,0,1,-33,0 Z"/>
		</g>
		<!-- グリップ。-->
		<g id="glip" transform="translate(103, 0)">
			<rect class="pEdge pGlip" y="-10" width="55" height="20"/>
		</g>
	</g>
</svg>
