<?xml version="1.0"?>
<svg xmlns="http://www.w3.org/2000/svg"
	 width="100" height="100" viewBox="0 0 320 320">
	<style>
.stroke { fill: none; }
.stroke.thin { stroke: hsl(0, 0%, 95%); stroke-width: 5; }
.stroke.base { stroke: hsl(0, 0%, 60%); stroke-width: 10; }
.stroke.bold { stroke: hsla(0, 0%, 0%, 0.5); stroke-width: 15; }
.crossShadow { fill: hsla(0, 0%, 0%, 0.25); filter: url(#blur); }
.bodyStroke { stroke-linejoin: bevel; stroke-width: 5; }
#target { filter: url(#shadow); }
#body { fill: url(#bodySurface); stroke: hsla(0, 0%, 0%, 0.5); }
#bodyShade { fill: hsla(45, 100%, 55%, 0.1); }
g#label rect { fill: hsl(0, 0%, 93%); stroke: hsla(0, 0%, 0%, 0.5); }
g#label .line { stroke: hsl(180, 40%, 75%); stroke-width: 5; }
	</style>
	<defs>
		<!-- 短辺ストラップ外形。-->
		<path id="bandSPath"
			d="M21,-11 l-2,-2 q-6,-6,0,-12 l16,-16 q6,-6,12,0 l2,2"/>
		<!-- 長辺ストラップ外形。-->
		<path id="bandLPath"
			d="M50,-3 l-24.5,-24.5 c-15,-15,-35,-20,-25,-55
			s85,-65,100,-40 s-15,30,-40,35 s-58,23,-28,53 l24.5,24.5"/>
		<!-- ストラップ交差部の影。-->
		<path id="crossShadow" class="crossShadow"
			d="M4,-21 l12,12 l35,-35 l-12,-12 Z"/>
		<!-- 短辺ストラップ。-->
		<g id="bandS">
			<use class="stroke bold" href="#bandSPath" stroke-linecap="butt"/>
			<use class="stroke base" href="#bandSPath" stroke-linecap="butt"/>
			<use class="stroke thin" href="#bandSPath" stroke-linecap="butt"/>
		</g>
		<!-- 長辺ストラップ。-->
		<g id="bandL">
			<use class="stroke bold" href="#bandLPath" stroke-linecap="round"/>
			<use class="stroke base" href="#bandLPath" stroke-linecap="round"/>
			<use class="stroke thin" href="#bandLPath" stroke-linecap="round"/>
		</g>
		<!-- 本体のクリップ。-->
		<clipPath id="bodyClip">
			<use href="#body"/>
		</clipPath>
		<!-- 短辺ストラップの内側マスク。-->
		<mask id="bandSInside">
			<rect x="-40" y="-200" width="400" height="400" fill="black"/>
			<use class="stroke bold" href="#bandSPath" style="stroke: white;"/>
		</mask>
		<!-- 短辺ストラップの外側マスク。-->
		<mask id="bandSOutside">
			<rect x="-40" y="-200" width="400" height="400" fill="white"/>
			<use class="stroke bold" href="#bandSPath" style="stroke: black;"/>
		</mask>
		<!-- 長辺ストラップの内側マスク。-->
		<mask id="bandLInside">
			<rect x="-40" y="-200" width="400" height="400" fill="black"/>
			<use class="stroke bold" href="#bandLPath" style="stroke: white;"/>
		</mask>
		<!-- 本体表面の光沢。-->
		<linearGradient id="bodySurface" x1="70" y1="180" x2="140" y2="250"
			gradientUnits="userSpaceOnUse" spreadMethod="reflect">
			<stop offset="0.00" stop-color="#f0f1af"/>
			<stop offset="0.40" stop-color="#f1dbaf"/>
			<stop offset="0.70" stop-color="#f0f1af"/>
			<stop offset="1.00" stop-color="#f7f8d3"/>
		</linearGradient>
		<!-- ぼかしの適用。-->
		<filter id="blur">
			<feGaussianBlur stdDeviation="3" />
		</filter>
		<!-- 影の適用。-->
		<filter id="shadow" x="-25%" y="-25%" width="150%" height="150%">
			<feDropShadow dx="5" dy="5" stdDeviation="5" flood-opacity="0.25"/>
		</filter>
	</defs>
	<g id="target" transform="translate(5,100) rotate(30)">
		<!-- ストラップ交差部。-->
		<use href="#bandL" mask="url(#bandSInside)"/>
		<!-- 短辺ストラップ。-->
		<use href="#bandS"/>
		<!-- 本体。-->
		<g>
			<path id="body" class="bodyStroke" 
				d="M 10,0 l60,60 h240 v-120 h-240 l-60,60 Z
				M 44,0 a16,16,0,0,1,32,0 a16,16,0,1,1,-32,0 Z" />
			<g id="label" transform="translate(100, -40)">
				<rect class="bodyStroke" width="190" height="80"/>
				<path class="line" d="M20,20 h60"/>
				<path class="line" d="M40,40 h130"/>
				<path class="line" d="M40,60 h130"/>
			</g>
			<path id="bodyShade" clip-path="url(#bodyClip)"
				d="M40,-85 h-40 v160 h320 v-100 q -200,100,-280,-60 z"/>
		</g>
		<!-- 長辺ストラップ。-->
		<use href="#bandL" mask="url(#bandSOutside)"/>
		<!-- ストラップ交差部の影。-->
		<g mask="url(#bandSOutside)">
			<use href="#crossShadow" mask="url(#bandLInside)"/>
		</g>
	</g>
</svg>
