<?xml version="1.0" encoding="UTF-8"?>
<svg xmlns="http://www.w3.org/2000/svg"
	width="100" height="100" viewBox="0 0 320 320">
	<style>
.fill { fill: hsl(60, 90%, 50%); }
.stroke { fill: none; stroke: hsla(60, 90%, 10%, 0.5); stroke-width: 5; stroke-linejoin: round; }
.glaze { fill: hsl(60, 90%, 90%); }
.shade { fill: hsl(55, 90%, 48%); }
	</style>
	<defs>
		<path id="sparkPath" d="M 0,0 l -20,-70 l 40,0 Z"/>
		<path id="sparkGlaze" d="M 0,0 l -20,-70 l 40,0 l-13,10 h -14 l 7,24 Z"/>
		<path id="sparkShade" d="M 0,0 v -36 l 7,-24 l13,-10 Z"/>
		<path id="thunderPath" d="M 0,0 l -105,170 h 65 l -30,120 l 105,-170 h-65 Z"/>
		<path id="thunderGlaze" d="M 0,0 l -105,170 h 65 l -30,120 l 32,-76 l 14,-56 h-59 l 51,-82 Z"/>
		<path id="thunderShade" d="M 0,0 l -32,76 l -14,56 h 59 l -51,82 l -32,76 l 105,-170 h-65 Z"/>
		<g id="thunder">
			<use class="fill" href="#thunderPath"/>
			<use class="glaze" href="#thunderGlaze"/>
			<use class="shade" href="#thunderShade"/>
			<use class="stroke" href="#thunderPath"/>
		</g>
		<g id="spark">
			<use class="fill" href="#sparkPath"/>
			<use class="glaze" href="#sparkGlaze"/>
			<use class="shade" href="#sparkShade"/>
			<use class="stroke" href="#sparkPath"/>
		</g>
	</defs>
	<use href="#thunder" transform="translate(210, 15)"/>
	<use href="#spark" transform="translate(100, 295) rotate(-30)"/>
	<use href="#spark" transform="translate(200, 295) rotate(50)"/>
</svg>
